%TF.GenerationSoftware,KiCad,Pcbnew,6.0.11-2627ca5db0~126~ubuntu22.04.1*%
%TF.CreationDate,2023-02-27T20:23:56+01:00*%
%TF.ProjectId,STM32 PIR Sensor,53544d33-3220-4504-9952-2053656e736f,rev?*%
%TF.SameCoordinates,Original*%
%TF.FileFunction,Copper,L2,Bot*%
%TF.FilePolarity,Positive*%
%FSLAX46Y46*%
G04 Gerber Fmt 4.6, Leading zero omitted, Abs format (unit mm)*
G04 Created by KiCad (PCBNEW 6.0.11-2627ca5db0~126~ubuntu22.04.1) date 2023-02-27 20:23:56*
%MOMM*%
%LPD*%
G01*
G04 APERTURE LIST*
G04 Aperture macros list*
%AMRoundRect*
0 Rectangle with rounded corners*
0 $1 Rounding radius*
0 $2 $3 $4 $5 $6 $7 $8 $9 X,Y pos of 4 corners*
0 Add a 4 corners polygon primitive as box body*
4,1,4,$2,$3,$4,$5,$6,$7,$8,$9,$2,$3,0*
0 Add four circle primitives for the rounded corners*
1,1,$1+$1,$2,$3*
1,1,$1+$1,$4,$5*
1,1,$1+$1,$6,$7*
1,1,$1+$1,$8,$9*
0 Add four rect primitives between the rounded corners*
20,1,$1+$1,$2,$3,$4,$5,0*
20,1,$1+$1,$4,$5,$6,$7,0*
20,1,$1+$1,$6,$7,$8,$9,0*
20,1,$1+$1,$8,$9,$2,$3,0*%
G04 Aperture macros list end*
%TA.AperFunction,SMDPad,CuDef*%
%ADD10R,1.500000X5.080000*%
%TD*%
%TA.AperFunction,SMDPad,CuDef*%
%ADD11RoundRect,0.250000X1.500000X0.550000X-1.500000X0.550000X-1.500000X-0.550000X1.500000X-0.550000X0*%
%TD*%
%TA.AperFunction,ComponentPad*%
%ADD12O,1.600000X1.200000*%
%TD*%
%TA.AperFunction,ComponentPad*%
%ADD13O,1.200000X1.200000*%
%TD*%
%TA.AperFunction,ComponentPad*%
%ADD14C,2.600000*%
%TD*%
%TA.AperFunction,ComponentPad*%
%ADD15C,1.000000*%
%TD*%
%TA.AperFunction,ComponentPad*%
%ADD16O,1.000000X1.000000*%
%TD*%
%TA.AperFunction,ComponentPad*%
%ADD17R,1.000000X1.000000*%
%TD*%
%TA.AperFunction,ComponentPad*%
%ADD18R,1.700000X1.700000*%
%TD*%
%TA.AperFunction,ComponentPad*%
%ADD19O,1.700000X1.700000*%
%TD*%
%TA.AperFunction,ViaPad*%
%ADD20C,0.700000*%
%TD*%
%TA.AperFunction,ViaPad*%
%ADD21C,0.800000*%
%TD*%
%TA.AperFunction,Conductor*%
%ADD22C,0.500000*%
%TD*%
%TA.AperFunction,Conductor*%
%ADD23C,0.300000*%
%TD*%
G04 APERTURE END LIST*
D10*
%TO.P,J2,2,Ext*%
%TO.N,GND*%
X234579280Y-34400000D03*
X226079280Y-34400000D03*
%TD*%
D11*
%TO.P,C14,1*%
%TO.N,Net-(C14-Pad1)*%
X222256000Y-76962000D03*
%TO.P,C14,2*%
%TO.N,GND*%
X216656000Y-76962000D03*
%TD*%
D12*
%TO.P,U5,1,VDD*%
%TO.N,Net-(C14-Pad1)*%
X229960000Y-78200000D03*
D13*
%TO.P,U5,2,OUT*%
%TO.N,Net-(C13-Pad1)*%
X232500000Y-75660000D03*
%TO.P,U5,3,GND*%
%TO.N,GND*%
X235040000Y-78200000D03*
%TD*%
D14*
%TO.P,J1,1,Pin_1*%
%TO.N,+12V*%
X245658000Y-94170000D03*
%TO.P,J1,2,Pin_2*%
%TO.N,GND*%
X250658000Y-94170000D03*
%TD*%
D15*
%TO.P,U10,1,VCC*%
%TO.N,Net-(JP1-Pad2)*%
X247344000Y-50556000D03*
D16*
%TO.P,U10,2,GND*%
%TO.N,GND*%
X247344000Y-49286000D03*
%TO.P,U10,3,Rx*%
%TO.N,UART_Tx*%
X247344000Y-48016000D03*
%TO.P,U10,4,Tx*%
%TO.N,UART_Rx*%
X247344000Y-46746000D03*
D17*
%TO.P,U10,5,OUT*%
%TO.N,Radar_OUT*%
X247344000Y-45476000D03*
%TD*%
D18*
%TO.P,J3,1,Pin_1*%
%TO.N,+3.3V*%
X236474000Y-41402000D03*
D19*
%TO.P,J3,2,Pin_2*%
%TO.N,SWCLK*%
X239014000Y-41402000D03*
%TO.P,J3,3,Pin_3*%
%TO.N,GND*%
X241554000Y-41402000D03*
%TO.P,J3,4,Pin_4*%
%TO.N,SWDIO*%
X244094000Y-41402000D03*
%TO.P,J3,5,Pin_5*%
%TO.N,NRST*%
X246634000Y-41402000D03*
%TD*%
D20*
%TO.N,+3.3V*%
X245745000Y-53467000D03*
X217043000Y-65913000D03*
X242062000Y-66040000D03*
X220980000Y-59690000D03*
X248666000Y-71120000D03*
X247650000Y-55372000D03*
X241173000Y-48895000D03*
X241554000Y-69850000D03*
X239268000Y-46990000D03*
X250952000Y-72644000D03*
X244094000Y-66040000D03*
X241300000Y-73660000D03*
X220980000Y-50800000D03*
%TO.N,Net-(C14-Pad1)*%
X224790000Y-76962000D03*
%TO.N,Net-(C16-Pad1)*%
X221742000Y-85344000D03*
X225806000Y-87376000D03*
%TO.N,Net-(C18-Pad1)*%
X237236000Y-90678000D03*
X242316000Y-99060000D03*
%TO.N,+12V*%
X226559500Y-73911526D03*
X245618000Y-86868000D03*
X235910000Y-83876000D03*
X234188000Y-94234000D03*
X231648000Y-100838000D03*
X239014000Y-90678000D03*
%TO.N,GND*%
X241046000Y-37846000D03*
X211328000Y-32004000D03*
X235204000Y-37846000D03*
X212852000Y-48006000D03*
X212598000Y-89916000D03*
X212852000Y-41148000D03*
X238760000Y-32004000D03*
X249428000Y-78486000D03*
X253238000Y-35814000D03*
X230886000Y-73914000D03*
X213106000Y-64516000D03*
X236982000Y-37846000D03*
X241554000Y-43180000D03*
X250444000Y-77470000D03*
X222758000Y-95758000D03*
X214122000Y-76962000D03*
X241300000Y-32004000D03*
X238252000Y-76708000D03*
X217932000Y-95504000D03*
X215646000Y-37084000D03*
X241300000Y-93472000D03*
X253238000Y-33782000D03*
X249174000Y-96012000D03*
X253238000Y-32004000D03*
X222758000Y-89154000D03*
X240792000Y-90424000D03*
X229108000Y-37592000D03*
X247650000Y-61722000D03*
X247396000Y-37846000D03*
X228854000Y-36068000D03*
X237744000Y-84074000D03*
X231648000Y-37592000D03*
X231140000Y-98298000D03*
X217932000Y-89408000D03*
X245618000Y-99060000D03*
X238760000Y-37846000D03*
X243078000Y-37846000D03*
X217170000Y-44704000D03*
X229616000Y-48006000D03*
X245364000Y-37846000D03*
X231902000Y-34290000D03*
X241808000Y-91948000D03*
X217932000Y-37084000D03*
X219964000Y-37084000D03*
X211328000Y-35306000D03*
X245872000Y-82296000D03*
X215900000Y-32004000D03*
X236982000Y-32004000D03*
X248920000Y-85344000D03*
X233426000Y-40894000D03*
X229616000Y-52324000D03*
X222758000Y-99568000D03*
X224028000Y-32004000D03*
X241554000Y-83820000D03*
X222250000Y-32004000D03*
X220218000Y-32004000D03*
X216408000Y-57150000D03*
X253238000Y-37846000D03*
X249682000Y-32004000D03*
X233426000Y-37846000D03*
X246126000Y-49276000D03*
X212598000Y-99568000D03*
X228854000Y-34290000D03*
X226314000Y-61976000D03*
X235712000Y-48006000D03*
X224028000Y-37084000D03*
X251460000Y-37846000D03*
X251460000Y-32004000D03*
X243332000Y-32004000D03*
X231140000Y-52324000D03*
X246380000Y-76200000D03*
X221996000Y-37084000D03*
X252222000Y-40640000D03*
X228346000Y-41910000D03*
X245618000Y-32004000D03*
X219202000Y-61468000D03*
X213868000Y-32004000D03*
X234950000Y-80518000D03*
X228854000Y-32258000D03*
X212598000Y-95250000D03*
X251968000Y-88138000D03*
X239014000Y-65786000D03*
X250698000Y-99060000D03*
X211328000Y-37084000D03*
X232664000Y-85598000D03*
X211328000Y-33528000D03*
X217932000Y-99568000D03*
X248920000Y-90424000D03*
X249428000Y-65278000D03*
X230632000Y-88646000D03*
X234950000Y-76708000D03*
X231902000Y-32258000D03*
X252222000Y-96012000D03*
X230632000Y-67564000D03*
X224536000Y-48006000D03*
X213614000Y-37084000D03*
X212852000Y-56642000D03*
X215900000Y-84328000D03*
X247650000Y-32004000D03*
X231902000Y-36068000D03*
X248920000Y-61722000D03*
X249428000Y-37846000D03*
X218186000Y-32004000D03*
%TO.N,Net-(JP1-Pad2)*%
X252222000Y-50546000D03*
D21*
X248666000Y-50546000D03*
%TD*%
D22*
%TO.N,+3.3V*%
X241173000Y-48895000D02*
X239268000Y-46990000D01*
X217043000Y-65913000D02*
X220980000Y-61976000D01*
X245745000Y-53467000D02*
X247650000Y-55372000D01*
X241554000Y-71120000D02*
X241300000Y-71374000D01*
X241300000Y-70104000D02*
X241554000Y-69850000D01*
X242062000Y-66040000D02*
X244094000Y-66040000D01*
X248666000Y-71120000D02*
X241554000Y-71120000D01*
X241300000Y-71374000D02*
X241300000Y-70104000D01*
X220980000Y-50800000D02*
X220980000Y-59690000D01*
X241300000Y-73660000D02*
X241300000Y-71374000D01*
X250952000Y-72644000D02*
X249428000Y-71120000D01*
X220980000Y-61976000D02*
X220980000Y-59690000D01*
X249428000Y-71120000D02*
X248666000Y-71120000D01*
D23*
%TO.N,Net-(C14-Pad1)*%
X222256000Y-76962000D02*
X224790000Y-76962000D01*
%TO.N,Net-(C16-Pad1)*%
X225806000Y-87376000D02*
X223774000Y-87376000D01*
X223774000Y-87376000D02*
X221742000Y-85344000D01*
%TO.N,Net-(C18-Pad1)*%
X237236000Y-95250000D02*
X237236000Y-90678000D01*
X242316000Y-99060000D02*
X241046000Y-99060000D01*
X241046000Y-99060000D02*
X237236000Y-95250000D01*
D22*
%TO.N,+12V*%
X245618000Y-86868000D02*
X244094000Y-86868000D01*
X240792000Y-88900000D02*
X239014000Y-90678000D01*
X230886000Y-83820000D02*
X226559500Y-79493500D01*
X226559500Y-79493500D02*
X226559500Y-73911526D01*
X244094000Y-86868000D02*
X242062000Y-88900000D01*
X242062000Y-88900000D02*
X240792000Y-88900000D01*
X235854000Y-83820000D02*
X230886000Y-83820000D01*
X234188000Y-98298000D02*
X231648000Y-100838000D01*
X234188000Y-94234000D02*
X234188000Y-98298000D01*
X235910000Y-83876000D02*
X235854000Y-83820000D01*
%TO.N,Net-(JP1-Pad2)*%
X248666000Y-50546000D02*
X252222000Y-50546000D01*
%TD*%
%TA.AperFunction,Conductor*%
%TO.N,GND*%
G36*
X224897893Y-31380185D02*
G01*
X224943648Y-31432989D01*
X224953592Y-31502147D01*
X224930080Y-31558866D01*
X224891492Y-31610354D01*
X224883097Y-31625689D01*
X224838651Y-31744247D01*
X224835083Y-31759256D01*
X224829643Y-31809331D01*
X224829280Y-31816028D01*
X224829280Y-34132170D01*
X224833684Y-34147169D01*
X224835054Y-34148356D01*
X224842612Y-34150000D01*
X227311450Y-34150000D01*
X227326449Y-34145596D01*
X227327636Y-34144226D01*
X227329280Y-34136668D01*
X227329280Y-31816028D01*
X227328917Y-31809331D01*
X227323477Y-31759256D01*
X227319909Y-31744247D01*
X227275463Y-31625689D01*
X227267068Y-31610354D01*
X227228480Y-31558866D01*
X227204027Y-31493415D01*
X227218841Y-31425134D01*
X227268219Y-31375701D01*
X227327706Y-31360500D01*
X233330854Y-31360500D01*
X233397893Y-31380185D01*
X233443648Y-31432989D01*
X233453592Y-31502147D01*
X233430080Y-31558866D01*
X233391492Y-31610354D01*
X233383097Y-31625689D01*
X233338651Y-31744247D01*
X233335083Y-31759256D01*
X233329643Y-31809331D01*
X233329280Y-31816028D01*
X233329280Y-34132170D01*
X233333684Y-34147169D01*
X233335054Y-34148356D01*
X233342612Y-34150000D01*
X235811450Y-34150000D01*
X235826449Y-34145596D01*
X235827636Y-34144226D01*
X235829280Y-34136668D01*
X235829280Y-31816028D01*
X235828917Y-31809331D01*
X235823477Y-31759256D01*
X235819909Y-31744247D01*
X235775463Y-31625689D01*
X235767068Y-31610354D01*
X235728480Y-31558866D01*
X235704027Y-31493415D01*
X235718841Y-31425134D01*
X235768219Y-31375701D01*
X235827706Y-31360500D01*
X253675500Y-31360500D01*
X253742539Y-31380185D01*
X253788294Y-31432989D01*
X253799500Y-31484500D01*
X253799500Y-101835500D01*
X253779815Y-101902539D01*
X253727011Y-101948294D01*
X253675500Y-101959500D01*
X210824500Y-101959500D01*
X210757461Y-101939815D01*
X210711706Y-101887011D01*
X210700500Y-101835500D01*
X210700500Y-100838000D01*
X231092750Y-100838000D01*
X231111670Y-100981709D01*
X231167139Y-101115625D01*
X231255379Y-101230621D01*
X231370375Y-101318861D01*
X231377887Y-101321972D01*
X231377886Y-101321972D01*
X231496777Y-101371218D01*
X231496779Y-101371219D01*
X231504291Y-101374330D01*
X231648000Y-101393250D01*
X231791709Y-101374330D01*
X231799221Y-101371219D01*
X231799223Y-101371218D01*
X231918114Y-101321972D01*
X231918113Y-101321972D01*
X231925625Y-101318861D01*
X232040621Y-101230621D01*
X232128861Y-101115625D01*
X232184330Y-100981709D01*
X232185392Y-100973646D01*
X232187494Y-100965800D01*
X232188813Y-100966153D01*
X232213615Y-100910095D01*
X232220604Y-100902499D01*
X234482436Y-98640667D01*
X234493349Y-98630969D01*
X234512830Y-98615611D01*
X234520110Y-98609872D01*
X234553505Y-98561554D01*
X234555719Y-98558454D01*
X234590634Y-98511184D01*
X234593027Y-98504368D01*
X234597131Y-98498431D01*
X234614826Y-98442481D01*
X234616057Y-98438791D01*
X234632448Y-98392116D01*
X234632449Y-98392112D01*
X234635519Y-98383369D01*
X234635798Y-98376265D01*
X234635847Y-98376014D01*
X234637980Y-98369270D01*
X234638500Y-98362663D01*
X234638500Y-98309932D01*
X234638596Y-98305063D01*
X234640474Y-98257268D01*
X234640838Y-98248006D01*
X234638960Y-98240924D01*
X234638500Y-98232565D01*
X234638500Y-94593285D01*
X234658185Y-94526246D01*
X234663832Y-94518215D01*
X234663916Y-94518069D01*
X234668861Y-94511625D01*
X234724330Y-94377709D01*
X234743250Y-94234000D01*
X234724330Y-94090291D01*
X234668861Y-93956375D01*
X234580621Y-93841379D01*
X234531700Y-93803840D01*
X234472072Y-93758086D01*
X234465625Y-93753139D01*
X234429593Y-93738214D01*
X234339223Y-93700782D01*
X234339221Y-93700781D01*
X234331709Y-93697670D01*
X234188000Y-93678750D01*
X234044291Y-93697670D01*
X234036779Y-93700781D01*
X234036777Y-93700782D01*
X233946407Y-93738214D01*
X233910375Y-93753139D01*
X233903928Y-93758086D01*
X233844301Y-93803840D01*
X233795379Y-93841379D01*
X233707139Y-93956375D01*
X233651670Y-94090291D01*
X233632750Y-94234000D01*
X233651670Y-94377709D01*
X233707139Y-94511625D01*
X233712086Y-94518072D01*
X233716152Y-94525115D01*
X233714968Y-94525799D01*
X233737070Y-94582964D01*
X233737500Y-94593285D01*
X233737500Y-98060035D01*
X233717815Y-98127074D01*
X233701181Y-98147716D01*
X231583501Y-100265396D01*
X231522178Y-100298881D01*
X231512508Y-100300567D01*
X231512353Y-100300609D01*
X231504291Y-100301670D01*
X231496779Y-100304781D01*
X231496777Y-100304782D01*
X231406407Y-100342214D01*
X231370375Y-100357139D01*
X231255379Y-100445379D01*
X231167139Y-100560375D01*
X231111670Y-100694291D01*
X231092750Y-100838000D01*
X210700500Y-100838000D01*
X210700500Y-90678000D01*
X236680750Y-90678000D01*
X236699670Y-90821709D01*
X236755139Y-90955625D01*
X236843379Y-91070621D01*
X236849321Y-91075181D01*
X236882665Y-91136242D01*
X236885500Y-91162604D01*
X236885500Y-95199391D01*
X236883400Y-95219123D01*
X236883206Y-95223243D01*
X236881049Y-95233261D01*
X236882526Y-95245741D01*
X236884640Y-95263601D01*
X236884953Y-95268909D01*
X236885078Y-95268899D01*
X236885500Y-95274004D01*
X236885500Y-95279115D01*
X236886339Y-95284155D01*
X236888400Y-95296539D01*
X236889222Y-95302318D01*
X236891665Y-95322959D01*
X236894764Y-95349138D01*
X236898423Y-95356758D01*
X236899812Y-95365103D01*
X236904676Y-95374118D01*
X236904678Y-95374123D01*
X236922215Y-95406623D01*
X236924845Y-95411784D01*
X236945274Y-95454326D01*
X236948592Y-95458274D01*
X236950498Y-95460180D01*
X236951994Y-95461811D01*
X236952214Y-95462220D01*
X236952175Y-95462256D01*
X236952326Y-95462428D01*
X236955222Y-95467794D01*
X236962744Y-95474747D01*
X236991676Y-95501492D01*
X236995185Y-95504867D01*
X240762369Y-99272051D01*
X240774846Y-99287500D01*
X240777619Y-99290548D01*
X240783175Y-99299152D01*
X240791220Y-99305494D01*
X240807176Y-99318073D01*
X240811145Y-99321600D01*
X240811226Y-99321504D01*
X240815128Y-99324810D01*
X240818747Y-99328429D01*
X240833115Y-99338697D01*
X240837777Y-99342196D01*
X240874811Y-99371392D01*
X240882789Y-99374194D01*
X240889670Y-99379111D01*
X240899489Y-99382048D01*
X240899490Y-99382048D01*
X240934841Y-99392620D01*
X240940399Y-99394426D01*
X240977544Y-99407471D01*
X240977554Y-99407473D01*
X240984906Y-99410055D01*
X240990044Y-99410500D01*
X240992726Y-99410500D01*
X240994950Y-99410596D01*
X240995388Y-99410727D01*
X240995386Y-99410781D01*
X240995617Y-99410796D01*
X241001464Y-99412544D01*
X241011705Y-99412142D01*
X241011708Y-99412142D01*
X241051045Y-99410596D01*
X241055913Y-99410500D01*
X241831396Y-99410500D01*
X241898435Y-99430185D01*
X241918683Y-99446501D01*
X241923379Y-99452621D01*
X242038375Y-99540861D01*
X242045887Y-99543972D01*
X242045886Y-99543972D01*
X242164777Y-99593218D01*
X242164779Y-99593219D01*
X242172291Y-99596330D01*
X242316000Y-99615250D01*
X242459709Y-99596330D01*
X242467221Y-99593219D01*
X242467223Y-99593218D01*
X242586114Y-99543972D01*
X242586113Y-99543972D01*
X242593625Y-99540861D01*
X242708621Y-99452621D01*
X242796861Y-99337625D01*
X242852330Y-99203709D01*
X242871250Y-99060000D01*
X242852330Y-98916291D01*
X242796861Y-98782375D01*
X242708621Y-98667379D01*
X242673810Y-98640667D01*
X242600072Y-98584086D01*
X242593625Y-98579139D01*
X242543563Y-98558403D01*
X242467223Y-98526782D01*
X242467221Y-98526781D01*
X242459709Y-98523670D01*
X242316000Y-98504750D01*
X242172291Y-98523670D01*
X242164779Y-98526781D01*
X242164777Y-98526782D01*
X242088437Y-98558403D01*
X242038375Y-98579139D01*
X242031928Y-98584086D01*
X241958191Y-98640667D01*
X241923379Y-98667379D01*
X241918819Y-98673321D01*
X241857758Y-98706665D01*
X241831396Y-98709500D01*
X241242544Y-98709500D01*
X241175505Y-98689815D01*
X241154863Y-98673181D01*
X237622819Y-95141137D01*
X237589334Y-95079814D01*
X237586500Y-95053456D01*
X237586500Y-94133214D01*
X244152806Y-94133214D01*
X244153099Y-94138296D01*
X244153099Y-94138297D01*
X244158978Y-94240250D01*
X244167010Y-94379545D01*
X244168129Y-94384509D01*
X244200071Y-94526246D01*
X244221255Y-94620249D01*
X244314084Y-94848861D01*
X244316746Y-94853205D01*
X244440344Y-95054898D01*
X244440348Y-95054903D01*
X244443006Y-95059241D01*
X244446338Y-95063087D01*
X244446339Y-95063089D01*
X244593747Y-95233261D01*
X244604557Y-95245741D01*
X244608467Y-95248988D01*
X244608471Y-95248991D01*
X244741567Y-95359489D01*
X244794399Y-95403351D01*
X244895203Y-95462256D01*
X245003036Y-95525269D01*
X245003040Y-95525271D01*
X245007433Y-95527838D01*
X245237939Y-95615859D01*
X245262446Y-95620845D01*
X245474741Y-95664038D01*
X245474744Y-95664038D01*
X245479726Y-95665052D01*
X245641367Y-95670979D01*
X245721221Y-95673907D01*
X245721224Y-95673907D01*
X245726300Y-95674093D01*
X245971041Y-95642741D01*
X245975911Y-95641280D01*
X246090846Y-95606798D01*
X249580201Y-95606798D01*
X249588777Y-95618137D01*
X249697753Y-95698041D01*
X249705553Y-95702914D01*
X249934159Y-95823191D01*
X249942587Y-95826856D01*
X250186472Y-95912024D01*
X250195342Y-95914401D01*
X250449148Y-95962587D01*
X250458259Y-95963625D01*
X250716387Y-95973766D01*
X250725576Y-95973445D01*
X250982373Y-95945322D01*
X250991387Y-95943651D01*
X251241221Y-95877875D01*
X251249893Y-95874889D01*
X251487252Y-95772912D01*
X251495388Y-95768677D01*
X251715069Y-95632734D01*
X251722491Y-95627342D01*
X251730166Y-95620845D01*
X251738470Y-95608245D01*
X251732503Y-95598056D01*
X250670607Y-94536160D01*
X250656887Y-94528668D01*
X250655081Y-94528797D01*
X250648574Y-94532979D01*
X249586752Y-95594801D01*
X249580201Y-95606798D01*
X246090846Y-95606798D01*
X246202502Y-95573300D01*
X246202506Y-95573299D01*
X246207374Y-95571838D01*
X246428954Y-95463287D01*
X246433099Y-95460330D01*
X246433103Y-95460328D01*
X246625686Y-95322959D01*
X246629829Y-95320004D01*
X246804605Y-95145837D01*
X246948588Y-94945463D01*
X247057911Y-94724264D01*
X247129639Y-94488180D01*
X247161845Y-94243550D01*
X247162079Y-94234000D01*
X247163335Y-94182607D01*
X247163643Y-94170000D01*
X247162607Y-94157393D01*
X247160137Y-94127353D01*
X248853793Y-94127353D01*
X248866187Y-94385375D01*
X248867308Y-94394503D01*
X248917705Y-94647868D01*
X248920154Y-94656702D01*
X249007454Y-94899851D01*
X249011187Y-94908233D01*
X249133461Y-95135798D01*
X249138393Y-95143539D01*
X249210026Y-95239467D01*
X249221106Y-95247783D01*
X249233329Y-95241118D01*
X250291840Y-94182607D01*
X250298116Y-94171113D01*
X251016668Y-94171113D01*
X251016797Y-94172919D01*
X251020979Y-94179426D01*
X252086165Y-95244612D01*
X252099711Y-95252009D01*
X252104432Y-95248753D01*
X252241816Y-95035165D01*
X252246196Y-95027099D01*
X252352298Y-94791560D01*
X252355440Y-94782926D01*
X252425559Y-94534304D01*
X252427391Y-94525301D01*
X252460182Y-94267545D01*
X252460654Y-94261360D01*
X252462966Y-94173110D01*
X252462817Y-94166902D01*
X252443561Y-93907781D01*
X252442205Y-93898710D01*
X252385193Y-93646752D01*
X252382505Y-93637961D01*
X252288876Y-93397193D01*
X252284929Y-93388917D01*
X252156732Y-93164620D01*
X252151606Y-93157021D01*
X252106626Y-93099964D01*
X252094891Y-93091629D01*
X252083542Y-93098011D01*
X251024160Y-94157393D01*
X251016668Y-94171113D01*
X250298116Y-94171113D01*
X250299332Y-94168887D01*
X250299203Y-94167081D01*
X250295021Y-94160574D01*
X249231861Y-93097414D01*
X249218766Y-93090264D01*
X249208886Y-93097272D01*
X249191421Y-93118272D01*
X249186100Y-93125731D01*
X249052080Y-93346590D01*
X249047910Y-93354772D01*
X248948008Y-93593013D01*
X248945101Y-93601701D01*
X248881509Y-93852097D01*
X248879915Y-93861138D01*
X248854034Y-94118163D01*
X248853793Y-94127353D01*
X247160137Y-94127353D01*
X247143842Y-93929164D01*
X247143425Y-93924089D01*
X247083316Y-93684783D01*
X246984928Y-93458507D01*
X246850905Y-93251339D01*
X246771997Y-93164620D01*
X246688278Y-93072613D01*
X246688274Y-93072609D01*
X246684846Y-93068842D01*
X246491210Y-92915918D01*
X246440695Y-92888032D01*
X246279653Y-92799132D01*
X246279650Y-92799131D01*
X246275198Y-92796673D01*
X246088882Y-92730695D01*
X249577369Y-92730695D01*
X249581870Y-92740317D01*
X250645393Y-93803840D01*
X250659113Y-93811332D01*
X250660919Y-93811203D01*
X250667426Y-93807021D01*
X251730145Y-92744302D01*
X251736426Y-92732800D01*
X251727163Y-92720880D01*
X251577919Y-92617347D01*
X251569999Y-92612681D01*
X251338312Y-92498426D01*
X251329798Y-92494986D01*
X251083762Y-92416230D01*
X251074842Y-92414088D01*
X250819863Y-92372562D01*
X250810712Y-92371762D01*
X250552414Y-92368380D01*
X250543238Y-92368942D01*
X250287265Y-92403778D01*
X250278297Y-92405684D01*
X250030272Y-92477977D01*
X250021687Y-92481186D01*
X249787076Y-92589343D01*
X249779041Y-92593797D01*
X249586362Y-92720123D01*
X249577369Y-92730695D01*
X246088882Y-92730695D01*
X246042610Y-92714309D01*
X245799694Y-92671039D01*
X245713090Y-92669981D01*
X245558062Y-92668087D01*
X245558060Y-92668087D01*
X245552972Y-92668025D01*
X245309070Y-92705347D01*
X245074540Y-92782003D01*
X245070026Y-92784353D01*
X244860194Y-92893584D01*
X244860188Y-92893588D01*
X244855679Y-92895935D01*
X244658364Y-93044083D01*
X244654848Y-93047762D01*
X244654846Y-93047764D01*
X244580340Y-93125731D01*
X244487896Y-93222468D01*
X244485032Y-93226667D01*
X244485030Y-93226669D01*
X244397644Y-93354772D01*
X244348851Y-93426300D01*
X244244965Y-93650104D01*
X244243605Y-93655008D01*
X244190133Y-93847822D01*
X244179026Y-93887871D01*
X244152806Y-94133214D01*
X237586500Y-94133214D01*
X237586500Y-91162604D01*
X237606185Y-91095565D01*
X237622501Y-91075317D01*
X237628621Y-91070621D01*
X237716861Y-90955625D01*
X237772330Y-90821709D01*
X237791250Y-90678000D01*
X238458750Y-90678000D01*
X238477670Y-90821709D01*
X238533139Y-90955625D01*
X238621379Y-91070621D01*
X238627822Y-91075565D01*
X238713261Y-91141125D01*
X238736375Y-91158861D01*
X238743887Y-91161972D01*
X238743886Y-91161972D01*
X238862777Y-91211218D01*
X238862779Y-91211219D01*
X238870291Y-91214330D01*
X239014000Y-91233250D01*
X239157709Y-91214330D01*
X239165221Y-91211219D01*
X239165223Y-91211218D01*
X239284114Y-91161972D01*
X239284113Y-91161972D01*
X239291625Y-91158861D01*
X239314739Y-91141125D01*
X239400178Y-91075565D01*
X239406621Y-91070621D01*
X239494861Y-90955625D01*
X239550330Y-90821709D01*
X239551392Y-90813646D01*
X239553494Y-90805800D01*
X239554813Y-90806153D01*
X239579615Y-90750095D01*
X239586604Y-90742499D01*
X240942284Y-89386819D01*
X241003607Y-89353334D01*
X241029965Y-89350500D01*
X242027897Y-89350500D01*
X242042471Y-89351359D01*
X242067105Y-89354275D01*
X242067108Y-89354275D01*
X242076310Y-89355364D01*
X242112975Y-89348668D01*
X242134022Y-89344824D01*
X242137864Y-89344184D01*
X242171017Y-89339199D01*
X242195962Y-89335449D01*
X242202475Y-89332321D01*
X242209573Y-89331025D01*
X242217799Y-89326752D01*
X242261663Y-89303967D01*
X242265146Y-89302227D01*
X242318079Y-89276809D01*
X242323299Y-89271984D01*
X242323520Y-89271835D01*
X242329788Y-89268579D01*
X242334828Y-89264275D01*
X242372097Y-89227006D01*
X242375607Y-89223631D01*
X242410749Y-89191147D01*
X242410751Y-89191144D01*
X242417556Y-89184854D01*
X242421237Y-89178516D01*
X242426828Y-89172275D01*
X244244284Y-87354819D01*
X244305607Y-87321334D01*
X244331965Y-87318500D01*
X245258715Y-87318500D01*
X245325754Y-87338185D01*
X245333785Y-87343832D01*
X245333931Y-87343916D01*
X245340375Y-87348861D01*
X245347887Y-87351972D01*
X245347886Y-87351972D01*
X245466777Y-87401218D01*
X245466779Y-87401219D01*
X245474291Y-87404330D01*
X245618000Y-87423250D01*
X245761709Y-87404330D01*
X245769221Y-87401219D01*
X245769223Y-87401218D01*
X245888114Y-87351972D01*
X245888113Y-87351972D01*
X245895625Y-87348861D01*
X246010621Y-87260621D01*
X246026173Y-87240354D01*
X246093914Y-87152072D01*
X246098861Y-87145625D01*
X246154330Y-87011709D01*
X246173250Y-86868000D01*
X246154330Y-86724291D01*
X246098861Y-86590375D01*
X246032372Y-86503725D01*
X246015565Y-86481822D01*
X246010621Y-86475379D01*
X245961730Y-86437863D01*
X245902072Y-86392086D01*
X245895625Y-86387139D01*
X245859593Y-86372214D01*
X245769223Y-86334782D01*
X245769221Y-86334781D01*
X245761709Y-86331670D01*
X245618000Y-86312750D01*
X245474291Y-86331670D01*
X245466779Y-86334781D01*
X245466777Y-86334782D01*
X245376407Y-86372214D01*
X245340375Y-86387139D01*
X245333928Y-86392086D01*
X245326885Y-86396152D01*
X245326201Y-86394968D01*
X245269036Y-86417070D01*
X245258715Y-86417500D01*
X244128103Y-86417500D01*
X244113529Y-86416641D01*
X244088895Y-86413725D01*
X244088892Y-86413725D01*
X244079690Y-86412636D01*
X244043026Y-86419332D01*
X244021978Y-86423176D01*
X244018136Y-86423816D01*
X243984983Y-86428801D01*
X243960038Y-86432551D01*
X243953525Y-86435679D01*
X243946427Y-86436975D01*
X243938201Y-86441248D01*
X243894337Y-86464033D01*
X243890863Y-86465769D01*
X243837921Y-86491191D01*
X243832701Y-86496016D01*
X243832480Y-86496165D01*
X243826212Y-86499421D01*
X243821172Y-86503725D01*
X243783903Y-86540994D01*
X243780393Y-86544369D01*
X243745251Y-86576853D01*
X243745249Y-86576856D01*
X243738444Y-86583146D01*
X243734763Y-86589484D01*
X243729172Y-86595725D01*
X241911716Y-88413181D01*
X241850393Y-88446666D01*
X241824035Y-88449500D01*
X240826103Y-88449500D01*
X240811529Y-88448641D01*
X240786893Y-88445725D01*
X240786892Y-88445725D01*
X240777690Y-88444636D01*
X240768574Y-88446301D01*
X240768567Y-88446301D01*
X240719938Y-88455182D01*
X240716102Y-88455821D01*
X240703004Y-88457791D01*
X240667202Y-88463173D01*
X240667201Y-88463173D01*
X240658038Y-88464551D01*
X240651528Y-88467677D01*
X240644427Y-88468974D01*
X240636201Y-88473247D01*
X240592322Y-88496039D01*
X240588840Y-88497779D01*
X240544277Y-88519178D01*
X240544275Y-88519179D01*
X240535921Y-88523191D01*
X240530701Y-88528017D01*
X240530488Y-88528160D01*
X240524212Y-88531420D01*
X240519172Y-88535725D01*
X240481903Y-88572994D01*
X240478393Y-88576369D01*
X240443251Y-88608853D01*
X240443249Y-88608856D01*
X240436444Y-88615146D01*
X240432763Y-88621484D01*
X240427172Y-88627725D01*
X238949501Y-90105396D01*
X238888178Y-90138881D01*
X238878508Y-90140567D01*
X238878353Y-90140609D01*
X238870291Y-90141670D01*
X238862779Y-90144781D01*
X238862777Y-90144782D01*
X238772407Y-90182214D01*
X238736375Y-90197139D01*
X238621379Y-90285379D01*
X238533139Y-90400375D01*
X238477670Y-90534291D01*
X238458750Y-90678000D01*
X237791250Y-90678000D01*
X237772330Y-90534291D01*
X237716861Y-90400375D01*
X237628621Y-90285379D01*
X237513625Y-90197139D01*
X237477593Y-90182214D01*
X237387223Y-90144782D01*
X237387221Y-90144781D01*
X237379709Y-90141670D01*
X237236000Y-90122750D01*
X237092291Y-90141670D01*
X237084779Y-90144781D01*
X237084777Y-90144782D01*
X236994407Y-90182214D01*
X236958375Y-90197139D01*
X236843379Y-90285379D01*
X236755139Y-90400375D01*
X236699670Y-90534291D01*
X236680750Y-90678000D01*
X210700500Y-90678000D01*
X210700500Y-85344000D01*
X221186750Y-85344000D01*
X221205670Y-85487709D01*
X221261139Y-85621625D01*
X221349379Y-85736621D01*
X221464375Y-85824861D01*
X221471887Y-85827972D01*
X221471886Y-85827972D01*
X221590777Y-85877218D01*
X221590779Y-85877219D01*
X221598291Y-85880330D01*
X221732249Y-85897966D01*
X221733941Y-85898189D01*
X221742000Y-85899250D01*
X221749428Y-85898272D01*
X221816184Y-85917874D01*
X221836826Y-85934508D01*
X223490370Y-87588051D01*
X223502840Y-87603491D01*
X223505614Y-87606540D01*
X223511175Y-87615152D01*
X223519225Y-87621498D01*
X223535180Y-87634076D01*
X223539147Y-87637601D01*
X223539228Y-87637505D01*
X223543133Y-87640814D01*
X223546747Y-87644428D01*
X223550901Y-87647397D01*
X223550905Y-87647400D01*
X223561101Y-87654686D01*
X223565769Y-87658190D01*
X223602811Y-87687392D01*
X223610787Y-87690193D01*
X223617669Y-87695111D01*
X223627483Y-87698046D01*
X223627485Y-87698047D01*
X223662844Y-87708621D01*
X223668403Y-87710427D01*
X223705547Y-87723471D01*
X223705549Y-87723471D01*
X223712906Y-87726055D01*
X223718044Y-87726500D01*
X223720726Y-87726500D01*
X223722950Y-87726596D01*
X223723388Y-87726727D01*
X223723386Y-87726781D01*
X223723617Y-87726796D01*
X223729464Y-87728544D01*
X223739705Y-87728142D01*
X223739708Y-87728142D01*
X223779045Y-87726596D01*
X223783913Y-87726500D01*
X225321396Y-87726500D01*
X225388435Y-87746185D01*
X225408683Y-87762501D01*
X225413379Y-87768621D01*
X225528375Y-87856861D01*
X225535887Y-87859972D01*
X225535886Y-87859972D01*
X225654777Y-87909218D01*
X225654779Y-87909219D01*
X225662291Y-87912330D01*
X225806000Y-87931250D01*
X225949709Y-87912330D01*
X225957221Y-87909219D01*
X225957223Y-87909218D01*
X226076114Y-87859972D01*
X226076113Y-87859972D01*
X226083625Y-87856861D01*
X226198621Y-87768621D01*
X226286861Y-87653625D01*
X226342330Y-87519709D01*
X226361250Y-87376000D01*
X226342330Y-87232291D01*
X226286861Y-87098375D01*
X226226125Y-87019223D01*
X226203565Y-86989822D01*
X226198621Y-86983379D01*
X226083625Y-86895139D01*
X226018105Y-86868000D01*
X225957223Y-86842782D01*
X225957221Y-86842781D01*
X225949709Y-86839670D01*
X225806000Y-86820750D01*
X225662291Y-86839670D01*
X225654779Y-86842781D01*
X225654777Y-86842782D01*
X225593895Y-86868000D01*
X225528375Y-86895139D01*
X225413379Y-86983379D01*
X225408819Y-86989321D01*
X225347758Y-87022665D01*
X225321396Y-87025500D01*
X223970544Y-87025500D01*
X223903505Y-87005815D01*
X223882863Y-86989181D01*
X222332508Y-85438826D01*
X222299023Y-85377503D01*
X222296243Y-85351648D01*
X222297250Y-85344000D01*
X222278330Y-85200291D01*
X222222861Y-85066375D01*
X222134621Y-84951379D01*
X222019625Y-84863139D01*
X221983593Y-84848214D01*
X221893223Y-84810782D01*
X221893221Y-84810781D01*
X221885709Y-84807670D01*
X221742000Y-84788750D01*
X221598291Y-84807670D01*
X221590779Y-84810781D01*
X221590777Y-84810782D01*
X221500407Y-84848214D01*
X221464375Y-84863139D01*
X221349379Y-84951379D01*
X221261139Y-85066375D01*
X221205670Y-85200291D01*
X221186750Y-85344000D01*
X210700500Y-85344000D01*
X210700500Y-77558636D01*
X214406001Y-77558636D01*
X214406331Y-77565015D01*
X214416151Y-77659671D01*
X214418997Y-77672849D01*
X214469920Y-77825481D01*
X214475991Y-77838443D01*
X214560438Y-77974907D01*
X214569325Y-77986120D01*
X214682904Y-78099501D01*
X214694135Y-78108370D01*
X214830741Y-78192575D01*
X214843718Y-78198627D01*
X214996446Y-78249285D01*
X215009613Y-78252108D01*
X215103019Y-78261678D01*
X215109325Y-78262000D01*
X216388170Y-78262000D01*
X216403169Y-78257596D01*
X216404356Y-78256226D01*
X216406000Y-78248668D01*
X216406000Y-78244169D01*
X216906000Y-78244169D01*
X216910404Y-78259168D01*
X216911774Y-78260355D01*
X216919332Y-78261999D01*
X218202636Y-78261999D01*
X218209015Y-78261669D01*
X218303671Y-78251849D01*
X218316849Y-78249003D01*
X218469481Y-78198080D01*
X218482443Y-78192009D01*
X218618907Y-78107562D01*
X218630120Y-78098675D01*
X218743501Y-77985096D01*
X218752370Y-77973865D01*
X218836575Y-77837259D01*
X218842627Y-77824282D01*
X218893285Y-77671554D01*
X218896108Y-77658387D01*
X218905591Y-77565834D01*
X220305500Y-77565834D01*
X220305775Y-77568738D01*
X220305775Y-77568748D01*
X220307770Y-77589849D01*
X220308481Y-77597369D01*
X220319201Y-77627894D01*
X220345943Y-77704045D01*
X220353366Y-77725184D01*
X220433850Y-77834150D01*
X220441306Y-77839657D01*
X220535361Y-77909128D01*
X220535363Y-77909129D01*
X220542816Y-77914634D01*
X220551555Y-77917703D01*
X220551557Y-77917704D01*
X220592752Y-77932170D01*
X220670631Y-77959519D01*
X220678150Y-77960230D01*
X220678151Y-77960230D01*
X220699252Y-77962225D01*
X220699262Y-77962225D01*
X220702166Y-77962500D01*
X223809834Y-77962500D01*
X223812738Y-77962225D01*
X223812748Y-77962225D01*
X223833849Y-77960230D01*
X223833850Y-77960230D01*
X223841369Y-77959519D01*
X223919248Y-77932170D01*
X223960443Y-77917704D01*
X223960445Y-77917703D01*
X223969184Y-77914634D01*
X223976637Y-77909129D01*
X223976639Y-77909128D01*
X224070694Y-77839657D01*
X224078150Y-77834150D01*
X224158634Y-77725184D01*
X224166058Y-77704045D01*
X224192799Y-77627894D01*
X224203519Y-77597369D01*
X224204230Y-77589849D01*
X224206225Y-77568748D01*
X224206225Y-77568738D01*
X224206500Y-77565834D01*
X224206500Y-77459602D01*
X224226185Y-77392563D01*
X224278989Y-77346808D01*
X224348147Y-77336864D01*
X224405986Y-77361226D01*
X224512375Y-77442861D01*
X224519887Y-77445972D01*
X224519886Y-77445972D01*
X224638777Y-77495218D01*
X224638779Y-77495219D01*
X224646291Y-77498330D01*
X224790000Y-77517250D01*
X224933709Y-77498330D01*
X224941221Y-77495219D01*
X224941223Y-77495218D01*
X225060114Y-77445972D01*
X225060113Y-77445972D01*
X225067625Y-77442861D01*
X225182621Y-77354621D01*
X225196247Y-77336864D01*
X225265914Y-77246072D01*
X225270861Y-77239625D01*
X225308969Y-77147623D01*
X225323218Y-77113223D01*
X225323219Y-77113221D01*
X225326330Y-77105709D01*
X225345250Y-76962000D01*
X225326330Y-76818291D01*
X225270861Y-76684375D01*
X225182621Y-76569379D01*
X225067625Y-76481139D01*
X224985133Y-76446970D01*
X224941223Y-76428782D01*
X224941221Y-76428781D01*
X224933709Y-76425670D01*
X224790000Y-76406750D01*
X224646291Y-76425670D01*
X224638779Y-76428781D01*
X224638777Y-76428782D01*
X224594867Y-76446970D01*
X224512375Y-76481139D01*
X224505928Y-76486086D01*
X224405987Y-76562774D01*
X224340818Y-76587968D01*
X224272373Y-76573930D01*
X224222383Y-76525116D01*
X224206500Y-76464398D01*
X224206500Y-76358166D01*
X224203519Y-76326631D01*
X224158634Y-76198816D01*
X224143117Y-76177807D01*
X224083657Y-76097306D01*
X224078150Y-76089850D01*
X224048304Y-76067805D01*
X223976639Y-76014872D01*
X223976637Y-76014871D01*
X223969184Y-76009366D01*
X223960445Y-76006297D01*
X223960443Y-76006296D01*
X223912758Y-75989551D01*
X223841369Y-75964481D01*
X223833850Y-75963770D01*
X223833849Y-75963770D01*
X223812748Y-75961775D01*
X223812738Y-75961775D01*
X223809834Y-75961500D01*
X220702166Y-75961500D01*
X220699262Y-75961775D01*
X220699252Y-75961775D01*
X220678151Y-75963770D01*
X220678150Y-75963770D01*
X220670631Y-75964481D01*
X220599242Y-75989551D01*
X220551557Y-76006296D01*
X220551555Y-76006297D01*
X220542816Y-76009366D01*
X220535363Y-76014871D01*
X220535361Y-76014872D01*
X220463696Y-76067805D01*
X220433850Y-76089850D01*
X220428343Y-76097306D01*
X220368884Y-76177807D01*
X220353366Y-76198816D01*
X220308481Y-76326631D01*
X220305500Y-76358166D01*
X220305500Y-77565834D01*
X218905591Y-77565834D01*
X218905678Y-77564981D01*
X218906000Y-77558675D01*
X218906000Y-77229830D01*
X218901596Y-77214831D01*
X218900226Y-77213644D01*
X218892668Y-77212000D01*
X216923830Y-77212000D01*
X216908831Y-77216404D01*
X216907644Y-77217774D01*
X216906000Y-77225332D01*
X216906000Y-78244169D01*
X216406000Y-78244169D01*
X216406000Y-77229830D01*
X216401596Y-77214831D01*
X216400226Y-77213644D01*
X216392668Y-77212000D01*
X214423831Y-77212000D01*
X214408832Y-77216404D01*
X214407645Y-77217774D01*
X214406001Y-77225332D01*
X214406001Y-77558636D01*
X210700500Y-77558636D01*
X210700500Y-76694170D01*
X214406000Y-76694170D01*
X214410404Y-76709169D01*
X214411774Y-76710356D01*
X214419332Y-76712000D01*
X216388170Y-76712000D01*
X216403169Y-76707596D01*
X216404356Y-76706226D01*
X216406000Y-76698668D01*
X216406000Y-76694170D01*
X216906000Y-76694170D01*
X216910404Y-76709169D01*
X216911774Y-76710356D01*
X216919332Y-76712000D01*
X218888169Y-76712000D01*
X218903168Y-76707596D01*
X218904355Y-76706226D01*
X218905999Y-76698668D01*
X218905999Y-76365364D01*
X218905669Y-76358985D01*
X218895849Y-76264329D01*
X218893003Y-76251151D01*
X218842080Y-76098519D01*
X218836009Y-76085557D01*
X218751562Y-75949093D01*
X218742675Y-75937880D01*
X218629096Y-75824499D01*
X218617865Y-75815630D01*
X218481259Y-75731425D01*
X218468282Y-75725373D01*
X218315554Y-75674715D01*
X218302387Y-75671892D01*
X218208981Y-75662322D01*
X218202675Y-75662000D01*
X216923830Y-75662000D01*
X216908831Y-75666404D01*
X216907644Y-75667774D01*
X216906000Y-75675332D01*
X216906000Y-76694170D01*
X216406000Y-76694170D01*
X216406000Y-75679831D01*
X216401596Y-75664832D01*
X216400226Y-75663645D01*
X216392668Y-75662001D01*
X215109364Y-75662001D01*
X215102985Y-75662331D01*
X215008329Y-75672151D01*
X214995151Y-75674997D01*
X214842519Y-75725920D01*
X214829557Y-75731991D01*
X214693093Y-75816438D01*
X214681880Y-75825325D01*
X214568499Y-75938904D01*
X214559630Y-75950135D01*
X214475425Y-76086741D01*
X214469373Y-76099718D01*
X214418715Y-76252446D01*
X214415892Y-76265613D01*
X214406322Y-76359019D01*
X214406000Y-76365325D01*
X214406000Y-76694170D01*
X210700500Y-76694170D01*
X210700500Y-73911526D01*
X226004250Y-73911526D01*
X226023170Y-74055235D01*
X226026281Y-74062747D01*
X226026282Y-74062749D01*
X226063714Y-74153119D01*
X226078639Y-74189151D01*
X226083586Y-74195598D01*
X226087652Y-74202641D01*
X226086468Y-74203325D01*
X226108570Y-74260490D01*
X226109000Y-74270811D01*
X226109000Y-79459397D01*
X226108141Y-79473971D01*
X226104136Y-79507810D01*
X226105802Y-79516931D01*
X226114676Y-79565522D01*
X226115316Y-79569364D01*
X226124051Y-79627462D01*
X226127179Y-79633975D01*
X226128475Y-79641073D01*
X226132748Y-79649299D01*
X226155533Y-79693163D01*
X226157269Y-79696637D01*
X226182691Y-79749579D01*
X226187516Y-79754799D01*
X226187665Y-79755020D01*
X226190921Y-79761288D01*
X226195225Y-79766328D01*
X226232494Y-79803597D01*
X226235869Y-79807107D01*
X226268353Y-79842249D01*
X226268356Y-79842251D01*
X226274646Y-79849056D01*
X226280984Y-79852737D01*
X226287225Y-79858328D01*
X230543333Y-84114436D01*
X230553031Y-84125349D01*
X230574128Y-84152110D01*
X230581753Y-84157380D01*
X230581754Y-84157381D01*
X230622400Y-84185473D01*
X230625568Y-84187737D01*
X230665356Y-84217125D01*
X230665364Y-84217129D01*
X230672817Y-84222634D01*
X230679631Y-84225027D01*
X230685569Y-84229131D01*
X230694408Y-84231926D01*
X230694407Y-84231926D01*
X230741548Y-84246835D01*
X230745243Y-84248068D01*
X230800631Y-84267519D01*
X230807733Y-84267798D01*
X230807989Y-84267847D01*
X230814730Y-84269980D01*
X230821337Y-84270500D01*
X230874068Y-84270500D01*
X230878937Y-84270596D01*
X230926727Y-84272474D01*
X230926728Y-84272474D01*
X230935994Y-84272838D01*
X230943078Y-84270960D01*
X230951438Y-84270500D01*
X235477735Y-84270500D01*
X235544774Y-84290185D01*
X235553222Y-84296125D01*
X235625923Y-84351911D01*
X235625927Y-84351914D01*
X235632375Y-84356861D01*
X235639887Y-84359972D01*
X235639886Y-84359972D01*
X235758777Y-84409218D01*
X235758779Y-84409219D01*
X235766291Y-84412330D01*
X235910000Y-84431250D01*
X236053709Y-84412330D01*
X236061221Y-84409219D01*
X236061223Y-84409218D01*
X236180114Y-84359972D01*
X236180113Y-84359972D01*
X236187625Y-84356861D01*
X236302621Y-84268621D01*
X236333967Y-84227771D01*
X236385914Y-84160072D01*
X236390861Y-84153625D01*
X236446330Y-84019709D01*
X236465250Y-83876000D01*
X236446330Y-83732291D01*
X236390861Y-83598375D01*
X236302621Y-83483379D01*
X236187625Y-83395139D01*
X236078202Y-83349815D01*
X236061223Y-83342782D01*
X236061221Y-83342781D01*
X236053709Y-83339670D01*
X235910000Y-83320750D01*
X235766291Y-83339670D01*
X235758779Y-83342781D01*
X235758777Y-83342782D01*
X235717062Y-83360061D01*
X235669610Y-83369500D01*
X231123965Y-83369500D01*
X231056926Y-83349815D01*
X231036284Y-83333181D01*
X227046319Y-79343216D01*
X227012834Y-79281893D01*
X227010000Y-79255535D01*
X227010000Y-78194376D01*
X228954455Y-78194376D01*
X228955179Y-78201265D01*
X228955179Y-78201268D01*
X228961562Y-78261999D01*
X228973227Y-78372983D01*
X229031103Y-78542993D01*
X229125206Y-78695955D01*
X229250859Y-78824268D01*
X229401817Y-78921554D01*
X229469994Y-78946368D01*
X229564063Y-78980607D01*
X229564065Y-78980608D01*
X229570578Y-78982978D01*
X229628253Y-78990264D01*
X229705417Y-79000012D01*
X229705423Y-79000012D01*
X229709283Y-79000500D01*
X230205155Y-79000500D01*
X230208602Y-79000113D01*
X230208608Y-79000113D01*
X230331581Y-78986319D01*
X230338472Y-78985546D01*
X230508073Y-78926485D01*
X230660375Y-78831316D01*
X230787807Y-78704770D01*
X230884037Y-78553136D01*
X230914413Y-78467830D01*
X230916219Y-78462759D01*
X233971731Y-78462759D01*
X233997255Y-78563260D01*
X234001028Y-78573916D01*
X234080910Y-78747193D01*
X234086574Y-78757002D01*
X234196689Y-78912812D01*
X234204039Y-78921417D01*
X234340709Y-79054555D01*
X234349512Y-79061683D01*
X234508147Y-79167680D01*
X234518105Y-79173087D01*
X234693396Y-79248397D01*
X234704178Y-79251901D01*
X234772609Y-79267385D01*
X234786462Y-79266510D01*
X234789907Y-79257504D01*
X235290000Y-79257504D01*
X235293903Y-79270798D01*
X235303736Y-79272206D01*
X235483937Y-79211036D01*
X235494293Y-79206425D01*
X235660753Y-79113202D01*
X235670090Y-79106785D01*
X235816777Y-78984787D01*
X235824787Y-78976777D01*
X235946785Y-78830090D01*
X235953202Y-78820753D01*
X236046425Y-78654293D01*
X236051036Y-78643937D01*
X236112215Y-78463709D01*
X236110821Y-78453930D01*
X236097467Y-78450000D01*
X235307830Y-78450000D01*
X235292831Y-78454404D01*
X235291644Y-78455774D01*
X235290000Y-78463332D01*
X235290000Y-79257504D01*
X234789907Y-79257504D01*
X234790000Y-79257261D01*
X234790000Y-78467830D01*
X234785596Y-78452831D01*
X234784226Y-78451644D01*
X234776668Y-78450000D01*
X233986321Y-78450000D01*
X233973004Y-78453910D01*
X233971731Y-78462759D01*
X230916219Y-78462759D01*
X230941957Y-78390479D01*
X230941958Y-78390475D01*
X230944281Y-78383951D01*
X230965545Y-78205624D01*
X230963640Y-78187494D01*
X230947498Y-78033913D01*
X230947498Y-78033911D01*
X230946773Y-78027017D01*
X230919482Y-77946850D01*
X233970809Y-77946850D01*
X233977433Y-77950000D01*
X234772170Y-77950000D01*
X234787169Y-77945596D01*
X234788356Y-77944226D01*
X234790000Y-77936668D01*
X234790000Y-77932170D01*
X235290000Y-77932170D01*
X235294404Y-77947169D01*
X235295774Y-77948356D01*
X235303332Y-77950000D01*
X236094654Y-77950000D01*
X236107971Y-77946090D01*
X236109123Y-77938082D01*
X236072880Y-77809574D01*
X236068823Y-77799007D01*
X235984441Y-77627894D01*
X235978517Y-77618228D01*
X235864366Y-77465362D01*
X235856785Y-77456942D01*
X235716683Y-77327432D01*
X235707701Y-77320540D01*
X235546331Y-77218724D01*
X235536253Y-77213589D01*
X235359035Y-77142886D01*
X235348182Y-77139670D01*
X235307484Y-77131576D01*
X235294816Y-77132710D01*
X235290000Y-77147623D01*
X235290000Y-77932170D01*
X234790000Y-77932170D01*
X234790000Y-77144587D01*
X234786254Y-77131829D01*
X234771573Y-77129923D01*
X234759685Y-77131966D01*
X234748745Y-77134897D01*
X234569737Y-77200936D01*
X234559524Y-77205808D01*
X234395557Y-77303358D01*
X234386390Y-77310018D01*
X234242942Y-77435819D01*
X234235152Y-77444028D01*
X234117027Y-77593868D01*
X234110864Y-77603360D01*
X234022025Y-77772214D01*
X234017694Y-77782669D01*
X233971023Y-77932975D01*
X233970809Y-77946850D01*
X230919482Y-77946850D01*
X230888897Y-77857007D01*
X230807799Y-77725184D01*
X230798427Y-77709950D01*
X230798426Y-77709949D01*
X230794794Y-77704045D01*
X230669141Y-77575732D01*
X230518183Y-77478446D01*
X230450006Y-77453632D01*
X230355937Y-77419393D01*
X230355935Y-77419392D01*
X230349422Y-77417022D01*
X230291747Y-77409736D01*
X230214583Y-77399988D01*
X230214577Y-77399988D01*
X230210717Y-77399500D01*
X229714845Y-77399500D01*
X229711398Y-77399887D01*
X229711392Y-77399887D01*
X229588419Y-77413681D01*
X229581528Y-77414454D01*
X229411927Y-77473515D01*
X229259625Y-77568684D01*
X229132193Y-77695230D01*
X229083337Y-77772214D01*
X229042059Y-77837259D01*
X229035963Y-77846864D01*
X229033636Y-77853399D01*
X228978043Y-78009521D01*
X228978042Y-78009525D01*
X228975719Y-78016049D01*
X228954455Y-78194376D01*
X227010000Y-78194376D01*
X227010000Y-75648753D01*
X231694514Y-75648753D01*
X231702027Y-75725373D01*
X231710877Y-75815630D01*
X231712039Y-75827486D01*
X231768726Y-75997896D01*
X231772319Y-76003829D01*
X231772320Y-76003831D01*
X231829665Y-76098519D01*
X231861759Y-76151512D01*
X231986514Y-76280699D01*
X231992308Y-76284490D01*
X231992311Y-76284493D01*
X232068197Y-76334151D01*
X232136789Y-76379036D01*
X232305116Y-76441636D01*
X232483130Y-76465388D01*
X232490031Y-76464760D01*
X232490033Y-76464760D01*
X232597744Y-76454958D01*
X232661981Y-76449112D01*
X232832782Y-76393615D01*
X232987044Y-76301657D01*
X233024894Y-76265613D01*
X233112080Y-76182587D01*
X233112082Y-76182585D01*
X233117099Y-76177807D01*
X233216483Y-76028222D01*
X233280257Y-75860336D01*
X233305251Y-75682493D01*
X233305399Y-75671892D01*
X233305511Y-75663899D01*
X233305511Y-75663892D01*
X233305565Y-75660000D01*
X233285546Y-75481528D01*
X233226485Y-75311927D01*
X233131316Y-75159625D01*
X233004770Y-75032193D01*
X232853136Y-74935963D01*
X232833219Y-74928871D01*
X232690479Y-74878043D01*
X232690475Y-74878042D01*
X232683951Y-74875719D01*
X232505624Y-74854455D01*
X232498735Y-74855179D01*
X232498732Y-74855179D01*
X232333913Y-74872502D01*
X232333911Y-74872502D01*
X232327017Y-74873227D01*
X232320456Y-74875461D01*
X232320454Y-74875461D01*
X232233718Y-74904989D01*
X232157007Y-74931103D01*
X232004045Y-75025206D01*
X231875732Y-75150859D01*
X231778446Y-75301817D01*
X231717022Y-75470578D01*
X231694514Y-75648753D01*
X227010000Y-75648753D01*
X227010000Y-74270811D01*
X227029685Y-74203772D01*
X227035332Y-74195741D01*
X227035416Y-74195595D01*
X227040361Y-74189151D01*
X227055286Y-74153119D01*
X227092718Y-74062749D01*
X227092719Y-74062747D01*
X227095830Y-74055235D01*
X227114750Y-73911526D01*
X227095830Y-73767817D01*
X227051171Y-73660000D01*
X240744750Y-73660000D01*
X240763670Y-73803709D01*
X240819139Y-73937625D01*
X240907379Y-74052621D01*
X241022375Y-74140861D01*
X241029887Y-74143972D01*
X241029886Y-74143972D01*
X241148777Y-74193218D01*
X241148779Y-74193219D01*
X241156291Y-74196330D01*
X241300000Y-74215250D01*
X241443709Y-74196330D01*
X241451221Y-74193219D01*
X241451223Y-74193218D01*
X241570114Y-74143972D01*
X241570113Y-74143972D01*
X241577625Y-74140861D01*
X241692621Y-74052621D01*
X241780861Y-73937625D01*
X241836330Y-73803709D01*
X241855250Y-73660000D01*
X241836330Y-73516291D01*
X241799575Y-73427554D01*
X241783972Y-73389886D01*
X241780861Y-73382375D01*
X241775914Y-73375928D01*
X241771848Y-73368885D01*
X241773032Y-73368201D01*
X241750930Y-73311036D01*
X241750500Y-73300715D01*
X241750500Y-71694500D01*
X241770185Y-71627461D01*
X241822989Y-71581706D01*
X241874500Y-71570500D01*
X248306715Y-71570500D01*
X248373754Y-71590185D01*
X248381785Y-71595832D01*
X248381931Y-71595916D01*
X248388375Y-71600861D01*
X248395887Y-71603972D01*
X248395886Y-71603972D01*
X248514777Y-71653218D01*
X248514779Y-71653219D01*
X248522291Y-71656330D01*
X248666000Y-71675250D01*
X248809709Y-71656330D01*
X248817221Y-71653219D01*
X248817223Y-71653218D01*
X248936114Y-71603972D01*
X248936113Y-71603972D01*
X248943625Y-71600861D01*
X248950072Y-71595914D01*
X248957115Y-71591848D01*
X248957799Y-71593032D01*
X249014964Y-71570930D01*
X249025285Y-71570500D01*
X249190035Y-71570500D01*
X249257074Y-71590185D01*
X249277716Y-71606819D01*
X250379396Y-72708499D01*
X250412881Y-72769822D01*
X250414567Y-72779492D01*
X250414608Y-72779646D01*
X250415670Y-72787709D01*
X250471139Y-72921625D01*
X250559379Y-73036621D01*
X250674375Y-73124861D01*
X250681887Y-73127972D01*
X250681886Y-73127972D01*
X250800777Y-73177218D01*
X250800779Y-73177219D01*
X250808291Y-73180330D01*
X250952000Y-73199250D01*
X251095709Y-73180330D01*
X251103221Y-73177219D01*
X251103223Y-73177218D01*
X251222114Y-73127972D01*
X251222113Y-73127972D01*
X251229625Y-73124861D01*
X251344621Y-73036621D01*
X251432861Y-72921625D01*
X251488330Y-72787709D01*
X251507250Y-72644000D01*
X251488330Y-72500291D01*
X251432861Y-72366375D01*
X251344621Y-72251379D01*
X251229625Y-72163139D01*
X251193593Y-72148214D01*
X251103223Y-72110782D01*
X251103221Y-72110781D01*
X251095709Y-72107670D01*
X251087647Y-72106609D01*
X251079800Y-72104506D01*
X251080153Y-72103187D01*
X251024095Y-72078385D01*
X251016499Y-72071396D01*
X249770667Y-70825564D01*
X249760969Y-70814651D01*
X249745611Y-70795170D01*
X249739872Y-70787890D01*
X249691554Y-70754495D01*
X249688454Y-70752281D01*
X249641184Y-70717366D01*
X249634368Y-70714973D01*
X249628431Y-70710869D01*
X249572481Y-70693174D01*
X249568791Y-70691943D01*
X249522116Y-70675552D01*
X249522112Y-70675551D01*
X249513369Y-70672481D01*
X249506265Y-70672202D01*
X249506014Y-70672153D01*
X249499270Y-70670020D01*
X249492663Y-70669500D01*
X249439932Y-70669500D01*
X249435063Y-70669404D01*
X249387273Y-70667526D01*
X249387272Y-70667526D01*
X249378006Y-70667162D01*
X249370922Y-70669040D01*
X249362562Y-70669500D01*
X249025285Y-70669500D01*
X248958246Y-70649815D01*
X248950215Y-70644168D01*
X248950069Y-70644084D01*
X248943625Y-70639139D01*
X248841918Y-70597011D01*
X248817223Y-70586782D01*
X248817221Y-70586781D01*
X248809709Y-70583670D01*
X248666000Y-70564750D01*
X248522291Y-70583670D01*
X248514779Y-70586781D01*
X248514777Y-70586782D01*
X248490082Y-70597011D01*
X248388375Y-70639139D01*
X248381928Y-70644086D01*
X248374885Y-70648152D01*
X248374201Y-70646968D01*
X248317036Y-70669070D01*
X248306715Y-70669500D01*
X241874500Y-70669500D01*
X241807461Y-70649815D01*
X241761706Y-70597011D01*
X241750500Y-70545500D01*
X241750500Y-70447318D01*
X241770185Y-70380279D01*
X241818269Y-70340096D01*
X241817079Y-70338034D01*
X241824116Y-70333971D01*
X241831625Y-70330861D01*
X241946621Y-70242621D01*
X242034861Y-70127625D01*
X242080007Y-70018631D01*
X242087218Y-70001223D01*
X242087219Y-70001221D01*
X242090330Y-69993709D01*
X242109250Y-69850000D01*
X242090330Y-69706291D01*
X242034861Y-69572375D01*
X241946621Y-69457379D01*
X241831625Y-69369139D01*
X241795593Y-69354214D01*
X241705223Y-69316782D01*
X241705221Y-69316781D01*
X241697709Y-69313670D01*
X241554000Y-69294750D01*
X241410291Y-69313670D01*
X241402779Y-69316781D01*
X241402777Y-69316782D01*
X241312407Y-69354214D01*
X241276375Y-69369139D01*
X241161379Y-69457379D01*
X241073139Y-69572375D01*
X241017670Y-69706291D01*
X241016609Y-69714353D01*
X241014506Y-69722200D01*
X241011598Y-69721421D01*
X240989148Y-69772183D01*
X240981475Y-69779597D01*
X240981514Y-69779633D01*
X240975169Y-69786389D01*
X240967890Y-69792128D01*
X240962620Y-69799753D01*
X240934510Y-69840426D01*
X240932281Y-69843546D01*
X240897366Y-69890816D01*
X240894973Y-69897632D01*
X240890869Y-69903569D01*
X240888074Y-69912408D01*
X240873175Y-69959516D01*
X240871943Y-69963209D01*
X240855552Y-70009884D01*
X240855551Y-70009888D01*
X240852481Y-70018631D01*
X240852202Y-70025735D01*
X240852153Y-70025986D01*
X240850020Y-70032730D01*
X240849500Y-70039337D01*
X240849500Y-70092068D01*
X240849404Y-70096937D01*
X240847162Y-70153994D01*
X240849040Y-70161078D01*
X240849500Y-70169438D01*
X240849500Y-71362068D01*
X240849404Y-71366937D01*
X240847162Y-71423994D01*
X240849040Y-71431078D01*
X240849500Y-71439438D01*
X240849500Y-73300715D01*
X240829815Y-73367754D01*
X240824168Y-73375785D01*
X240824084Y-73375931D01*
X240819139Y-73382375D01*
X240816028Y-73389886D01*
X240800426Y-73427554D01*
X240763670Y-73516291D01*
X240744750Y-73660000D01*
X227051171Y-73660000D01*
X227040361Y-73633901D01*
X226952121Y-73518905D01*
X226837125Y-73430665D01*
X226801093Y-73415740D01*
X226710723Y-73378308D01*
X226710721Y-73378307D01*
X226703209Y-73375196D01*
X226559500Y-73356276D01*
X226415791Y-73375196D01*
X226408279Y-73378307D01*
X226408277Y-73378308D01*
X226317907Y-73415740D01*
X226281875Y-73430665D01*
X226166879Y-73518905D01*
X226078639Y-73633901D01*
X226023170Y-73767817D01*
X226004250Y-73911526D01*
X210700500Y-73911526D01*
X210700500Y-65913000D01*
X216487750Y-65913000D01*
X216506670Y-66056709D01*
X216562139Y-66190625D01*
X216650379Y-66305621D01*
X216765375Y-66393861D01*
X216772887Y-66396972D01*
X216772886Y-66396972D01*
X216891777Y-66446218D01*
X216891779Y-66446219D01*
X216899291Y-66449330D01*
X217043000Y-66468250D01*
X217186709Y-66449330D01*
X217194221Y-66446219D01*
X217194223Y-66446218D01*
X217313114Y-66396972D01*
X217313113Y-66396972D01*
X217320625Y-66393861D01*
X217435621Y-66305621D01*
X217523861Y-66190625D01*
X217579330Y-66056709D01*
X217580392Y-66048646D01*
X217582494Y-66040800D01*
X217583813Y-66041153D01*
X217584323Y-66040000D01*
X241506750Y-66040000D01*
X241525670Y-66183709D01*
X241581139Y-66317625D01*
X241669379Y-66432621D01*
X241784375Y-66520861D01*
X241791887Y-66523972D01*
X241791886Y-66523972D01*
X241910777Y-66573218D01*
X241910779Y-66573219D01*
X241918291Y-66576330D01*
X242062000Y-66595250D01*
X242205709Y-66576330D01*
X242213221Y-66573219D01*
X242213223Y-66573218D01*
X242332114Y-66523972D01*
X242332113Y-66523972D01*
X242339625Y-66520861D01*
X242346072Y-66515914D01*
X242353115Y-66511848D01*
X242353799Y-66513032D01*
X242410964Y-66490930D01*
X242421285Y-66490500D01*
X243734715Y-66490500D01*
X243801754Y-66510185D01*
X243809785Y-66515832D01*
X243809931Y-66515916D01*
X243816375Y-66520861D01*
X243823887Y-66523972D01*
X243823886Y-66523972D01*
X243942777Y-66573218D01*
X243942779Y-66573219D01*
X243950291Y-66576330D01*
X244094000Y-66595250D01*
X244237709Y-66576330D01*
X244245221Y-66573219D01*
X244245223Y-66573218D01*
X244364114Y-66523972D01*
X244364113Y-66523972D01*
X244371625Y-66520861D01*
X244486621Y-66432621D01*
X244574861Y-66317625D01*
X244630330Y-66183709D01*
X244649250Y-66040000D01*
X244630330Y-65896291D01*
X244574861Y-65762375D01*
X244486621Y-65647379D01*
X244371625Y-65559139D01*
X244266113Y-65515435D01*
X244245223Y-65506782D01*
X244245221Y-65506781D01*
X244237709Y-65503670D01*
X244094000Y-65484750D01*
X243950291Y-65503670D01*
X243942779Y-65506781D01*
X243942777Y-65506782D01*
X243921887Y-65515435D01*
X243816375Y-65559139D01*
X243809928Y-65564086D01*
X243802885Y-65568152D01*
X243802201Y-65566968D01*
X243745036Y-65589070D01*
X243734715Y-65589500D01*
X242421285Y-65589500D01*
X242354246Y-65569815D01*
X242346215Y-65564168D01*
X242346069Y-65564084D01*
X242339625Y-65559139D01*
X242234113Y-65515435D01*
X242213223Y-65506782D01*
X242213221Y-65506781D01*
X242205709Y-65503670D01*
X242062000Y-65484750D01*
X241918291Y-65503670D01*
X241910779Y-65506781D01*
X241910777Y-65506782D01*
X241889887Y-65515435D01*
X241784375Y-65559139D01*
X241669379Y-65647379D01*
X241581139Y-65762375D01*
X241525670Y-65896291D01*
X241506750Y-66040000D01*
X217584323Y-66040000D01*
X217608615Y-65985095D01*
X217615604Y-65977499D01*
X221274436Y-62318667D01*
X221285349Y-62308969D01*
X221304830Y-62293611D01*
X221312110Y-62287872D01*
X221345471Y-62239603D01*
X221347735Y-62236434D01*
X221377132Y-62196633D01*
X221382635Y-62189183D01*
X221385029Y-62182366D01*
X221389131Y-62176431D01*
X221406826Y-62120481D01*
X221408041Y-62116838D01*
X221427520Y-62061369D01*
X221427799Y-62054267D01*
X221427851Y-62054005D01*
X221429980Y-62047270D01*
X221430500Y-62040663D01*
X221430500Y-61987941D01*
X221430596Y-61983073D01*
X221432474Y-61935266D01*
X221432838Y-61926006D01*
X221430960Y-61918925D01*
X221430500Y-61910562D01*
X221430500Y-60049285D01*
X221450185Y-59982246D01*
X221455832Y-59974215D01*
X221455916Y-59974069D01*
X221460861Y-59967625D01*
X221516330Y-59833709D01*
X221535250Y-59690000D01*
X221516330Y-59546291D01*
X221494861Y-59494458D01*
X221463972Y-59419886D01*
X221460861Y-59412375D01*
X221455914Y-59405928D01*
X221451848Y-59398885D01*
X221453032Y-59398201D01*
X221430930Y-59341036D01*
X221430500Y-59330715D01*
X221430500Y-58185551D01*
X233540503Y-58185551D01*
X233558753Y-58517173D01*
X233559405Y-58520853D01*
X233559406Y-58520860D01*
X233616058Y-58840518D01*
X233616711Y-58844201D01*
X233617799Y-58847771D01*
X233617801Y-58847779D01*
X233672439Y-59027049D01*
X233713538Y-59161897D01*
X233743645Y-59229997D01*
X233792735Y-59341036D01*
X233847830Y-59465659D01*
X233849731Y-59468855D01*
X233849734Y-59468860D01*
X233981298Y-59690000D01*
X234017642Y-59751089D01*
X234220515Y-60014050D01*
X234453511Y-60250734D01*
X234713253Y-60457713D01*
X234716439Y-60459677D01*
X234716442Y-60459679D01*
X234992803Y-60630030D01*
X234992807Y-60630032D01*
X234995980Y-60631988D01*
X235297596Y-60771035D01*
X235613732Y-60872839D01*
X235617395Y-60873548D01*
X235617400Y-60873549D01*
X235936137Y-60935217D01*
X235936141Y-60935218D01*
X235939808Y-60935927D01*
X235943537Y-60936191D01*
X236199942Y-60954346D01*
X236199956Y-60954346D01*
X236202124Y-60954500D01*
X236383519Y-60954500D01*
X236385387Y-60954387D01*
X236385400Y-60954387D01*
X236539666Y-60945087D01*
X236631522Y-60939549D01*
X236873157Y-60895418D01*
X236954568Y-60880550D01*
X236954571Y-60880549D01*
X236958241Y-60879879D01*
X236961795Y-60878776D01*
X236961801Y-60878774D01*
X237271872Y-60782495D01*
X237271879Y-60782492D01*
X237275426Y-60781391D01*
X237278820Y-60779869D01*
X237278826Y-60779867D01*
X237575070Y-60647040D01*
X237575072Y-60647039D01*
X237578482Y-60645510D01*
X237581683Y-60643583D01*
X237859826Y-60476127D01*
X237859829Y-60476125D01*
X237863018Y-60474205D01*
X237884165Y-60457713D01*
X238121967Y-60272256D01*
X238121972Y-60272252D01*
X238124913Y-60269958D01*
X238360374Y-60035726D01*
X238565990Y-59774904D01*
X238612805Y-59698059D01*
X238736839Y-59494458D01*
X238738782Y-59491269D01*
X238774653Y-59412375D01*
X238874703Y-59192328D01*
X238874705Y-59192322D01*
X238876248Y-59188929D01*
X238884798Y-59161897D01*
X238975269Y-58875829D01*
X238975271Y-58875822D01*
X238976396Y-58872264D01*
X238981001Y-58847779D01*
X239037084Y-58549536D01*
X239037084Y-58549535D01*
X239037775Y-58545861D01*
X239059497Y-58214449D01*
X239041247Y-57882827D01*
X239036824Y-57857866D01*
X238983942Y-57559482D01*
X238983941Y-57559478D01*
X238983289Y-57555799D01*
X238975856Y-57531409D01*
X238887550Y-57241674D01*
X238886462Y-57238103D01*
X238752170Y-56934341D01*
X238735037Y-56905542D01*
X238584263Y-56652113D01*
X238582358Y-56648911D01*
X238379485Y-56385950D01*
X238146489Y-56149266D01*
X237886747Y-55942287D01*
X237883558Y-55940321D01*
X237607197Y-55769970D01*
X237607193Y-55769968D01*
X237604020Y-55768012D01*
X237302404Y-55628965D01*
X236986268Y-55527161D01*
X236982605Y-55526452D01*
X236982600Y-55526451D01*
X236663863Y-55464783D01*
X236663859Y-55464782D01*
X236660192Y-55464073D01*
X236618542Y-55461124D01*
X236400058Y-55445654D01*
X236400044Y-55445654D01*
X236397876Y-55445500D01*
X236216481Y-55445500D01*
X236214613Y-55445613D01*
X236214600Y-55445613D01*
X236060334Y-55454913D01*
X235968478Y-55460451D01*
X235763856Y-55497822D01*
X235645432Y-55519450D01*
X235645429Y-55519451D01*
X235641759Y-55520121D01*
X235638205Y-55521224D01*
X235638199Y-55521226D01*
X235328128Y-55617505D01*
X235328121Y-55617508D01*
X235324574Y-55618609D01*
X235321180Y-55620131D01*
X235321174Y-55620133D01*
X235024930Y-55752960D01*
X235021518Y-55754490D01*
X235018319Y-55756416D01*
X235018317Y-55756417D01*
X234764229Y-55909391D01*
X234736982Y-55925795D01*
X234734044Y-55928086D01*
X234734043Y-55928087D01*
X234478033Y-56127744D01*
X234478028Y-56127748D01*
X234475087Y-56130042D01*
X234239626Y-56364274D01*
X234034010Y-56625096D01*
X233861218Y-56908731D01*
X233723752Y-57211071D01*
X233722628Y-57214626D01*
X233722625Y-57214633D01*
X233624731Y-57524171D01*
X233623604Y-57527736D01*
X233622914Y-57531404D01*
X233622913Y-57531409D01*
X233618327Y-57555799D01*
X233562225Y-57854139D01*
X233540503Y-58185551D01*
X221430500Y-58185551D01*
X221430500Y-53467000D01*
X245189750Y-53467000D01*
X245208670Y-53610709D01*
X245264139Y-53744625D01*
X245352379Y-53859621D01*
X245467375Y-53947861D01*
X245474887Y-53950972D01*
X245474886Y-53950972D01*
X245593777Y-54000218D01*
X245593779Y-54000219D01*
X245601291Y-54003330D01*
X245609353Y-54004391D01*
X245617200Y-54006494D01*
X245616847Y-54007813D01*
X245672905Y-54032615D01*
X245680501Y-54039604D01*
X247077396Y-55436499D01*
X247110881Y-55497822D01*
X247112567Y-55507492D01*
X247112608Y-55507646D01*
X247113670Y-55515709D01*
X247116781Y-55523221D01*
X247116782Y-55523223D01*
X247118887Y-55528305D01*
X247169139Y-55649625D01*
X247257379Y-55764621D01*
X247372375Y-55852861D01*
X247379887Y-55855972D01*
X247379886Y-55855972D01*
X247498777Y-55905218D01*
X247498779Y-55905219D01*
X247506291Y-55908330D01*
X247650000Y-55927250D01*
X247793709Y-55908330D01*
X247801221Y-55905219D01*
X247801223Y-55905218D01*
X247920114Y-55855972D01*
X247920113Y-55855972D01*
X247927625Y-55852861D01*
X248042621Y-55764621D01*
X248130861Y-55649625D01*
X248181113Y-55528305D01*
X248183218Y-55523223D01*
X248183219Y-55523221D01*
X248186330Y-55515709D01*
X248205250Y-55372000D01*
X248186330Y-55228291D01*
X248130861Y-55094375D01*
X248042621Y-54979379D01*
X247927625Y-54891139D01*
X247891593Y-54876214D01*
X247801223Y-54838782D01*
X247801221Y-54838781D01*
X247793709Y-54835670D01*
X247785647Y-54834609D01*
X247777800Y-54832506D01*
X247778153Y-54831187D01*
X247722095Y-54806385D01*
X247714499Y-54799396D01*
X246317604Y-53402501D01*
X246284119Y-53341178D01*
X246282433Y-53331508D01*
X246282391Y-53331353D01*
X246281330Y-53323291D01*
X246225861Y-53189375D01*
X246137621Y-53074379D01*
X246022625Y-52986139D01*
X245986593Y-52971214D01*
X245896223Y-52933782D01*
X245896221Y-52933781D01*
X245888709Y-52930670D01*
X245745000Y-52911750D01*
X245601291Y-52930670D01*
X245593779Y-52933781D01*
X245593777Y-52933782D01*
X245503407Y-52971214D01*
X245467375Y-52986139D01*
X245352379Y-53074379D01*
X245264139Y-53189375D01*
X245208670Y-53323291D01*
X245189750Y-53467000D01*
X221430500Y-53467000D01*
X221430500Y-51159285D01*
X221450185Y-51092246D01*
X221455832Y-51084215D01*
X221455916Y-51084069D01*
X221460861Y-51077625D01*
X221488509Y-51010877D01*
X221513218Y-50951223D01*
X221513219Y-50951221D01*
X221516330Y-50943709D01*
X221535250Y-50800000D01*
X221516330Y-50656291D01*
X221460861Y-50522375D01*
X221372621Y-50407379D01*
X221257625Y-50319139D01*
X221221593Y-50304214D01*
X221131223Y-50266782D01*
X221131221Y-50266781D01*
X221123709Y-50263670D01*
X220980000Y-50244750D01*
X220836291Y-50263670D01*
X220828779Y-50266781D01*
X220828777Y-50266782D01*
X220738407Y-50304214D01*
X220702375Y-50319139D01*
X220587379Y-50407379D01*
X220499139Y-50522375D01*
X220443670Y-50656291D01*
X220424750Y-50800000D01*
X220443670Y-50943709D01*
X220446781Y-50951221D01*
X220446782Y-50951223D01*
X220471491Y-51010877D01*
X220499139Y-51077625D01*
X220504086Y-51084072D01*
X220508152Y-51091115D01*
X220506968Y-51091799D01*
X220529070Y-51148964D01*
X220529500Y-51159285D01*
X220529500Y-59330715D01*
X220509815Y-59397754D01*
X220504168Y-59405785D01*
X220504084Y-59405931D01*
X220499139Y-59412375D01*
X220496028Y-59419886D01*
X220465140Y-59494458D01*
X220443670Y-59546291D01*
X220424750Y-59690000D01*
X220443670Y-59833709D01*
X220499139Y-59967625D01*
X220504086Y-59974072D01*
X220508152Y-59981115D01*
X220506968Y-59981799D01*
X220529070Y-60038964D01*
X220529500Y-60049285D01*
X220529500Y-61738035D01*
X220509815Y-61805074D01*
X220493181Y-61825716D01*
X216978501Y-65340396D01*
X216917178Y-65373881D01*
X216907508Y-65375567D01*
X216907353Y-65375609D01*
X216899291Y-65376670D01*
X216891779Y-65379781D01*
X216891777Y-65379782D01*
X216801407Y-65417214D01*
X216765375Y-65432139D01*
X216650379Y-65520379D01*
X216562139Y-65635375D01*
X216506670Y-65769291D01*
X216487750Y-65913000D01*
X210700500Y-65913000D01*
X210700500Y-49547788D01*
X246378722Y-49547788D01*
X246408054Y-49650082D01*
X246412494Y-49661296D01*
X246496594Y-49824936D01*
X246503134Y-49835084D01*
X246617410Y-49979265D01*
X246625802Y-49987956D01*
X246703156Y-50053788D01*
X246741452Y-50112228D01*
X246742073Y-50182095D01*
X246729073Y-50209379D01*
X246729942Y-50209845D01*
X246726407Y-50216437D01*
X246722113Y-50222547D01*
X246660524Y-50380513D01*
X246638394Y-50548611D01*
X246656999Y-50717135D01*
X246659565Y-50724147D01*
X246659566Y-50724151D01*
X246693220Y-50816114D01*
X246715266Y-50876356D01*
X246719433Y-50882558D01*
X246719435Y-50882561D01*
X246755107Y-50935646D01*
X246809830Y-51017083D01*
X246815360Y-51022115D01*
X246929702Y-51126159D01*
X246929706Y-51126162D01*
X246935233Y-51131191D01*
X247084235Y-51212092D01*
X247179585Y-51237107D01*
X247241005Y-51253220D01*
X247241007Y-51253220D01*
X247248233Y-51255116D01*
X247331178Y-51256419D01*
X247410290Y-51257662D01*
X247410293Y-51257662D01*
X247417760Y-51257779D01*
X247540209Y-51229735D01*
X247575738Y-51221598D01*
X247575739Y-51221598D01*
X247583029Y-51219928D01*
X247658111Y-51182165D01*
X247727820Y-51147106D01*
X247727822Y-51147105D01*
X247734498Y-51143747D01*
X247740180Y-51138894D01*
X247740183Y-51138892D01*
X247857741Y-51038487D01*
X247863423Y-51033634D01*
X247962361Y-50895947D01*
X247962387Y-50895881D01*
X248009694Y-50848845D01*
X248078009Y-50834189D01*
X248143403Y-50858793D01*
X248167184Y-50882360D01*
X248237718Y-50974282D01*
X248244165Y-50979229D01*
X248299687Y-51021832D01*
X248363159Y-51070536D01*
X248370667Y-51073646D01*
X248501729Y-51127934D01*
X248501731Y-51127935D01*
X248509238Y-51131044D01*
X248666000Y-51151682D01*
X248674059Y-51150621D01*
X248814703Y-51132105D01*
X248822762Y-51131044D01*
X248830269Y-51127935D01*
X248830271Y-51127934D01*
X248961333Y-51073646D01*
X248968841Y-51070536D01*
X249031933Y-51022124D01*
X249097102Y-50996930D01*
X249107419Y-50996500D01*
X251862715Y-50996500D01*
X251929754Y-51016185D01*
X251937785Y-51021832D01*
X251937931Y-51021916D01*
X251944375Y-51026861D01*
X251951887Y-51029972D01*
X251951886Y-51029972D01*
X252070777Y-51079218D01*
X252070779Y-51079219D01*
X252078291Y-51082330D01*
X252222000Y-51101250D01*
X252365709Y-51082330D01*
X252373221Y-51079219D01*
X252373223Y-51079218D01*
X252492114Y-51029972D01*
X252492113Y-51029972D01*
X252499625Y-51026861D01*
X252614621Y-50938621D01*
X252702861Y-50823625D01*
X252750047Y-50709707D01*
X252755218Y-50697223D01*
X252755219Y-50697221D01*
X252758330Y-50689709D01*
X252777250Y-50546000D01*
X252758330Y-50402291D01*
X252752924Y-50389238D01*
X252705972Y-50275886D01*
X252702861Y-50268375D01*
X252614621Y-50153379D01*
X252499625Y-50065139D01*
X252394183Y-50021464D01*
X252373223Y-50012782D01*
X252373221Y-50012781D01*
X252365709Y-50009670D01*
X252222000Y-49990750D01*
X252078291Y-50009670D01*
X252070779Y-50012781D01*
X252070777Y-50012782D01*
X252049817Y-50021464D01*
X251944375Y-50065139D01*
X251937928Y-50070086D01*
X251930885Y-50074152D01*
X251930201Y-50072968D01*
X251873036Y-50095070D01*
X251862715Y-50095500D01*
X249107419Y-50095500D01*
X249040380Y-50075815D01*
X249031933Y-50069876D01*
X248975288Y-50026411D01*
X248968841Y-50021464D01*
X248940368Y-50009670D01*
X248830271Y-49964066D01*
X248830269Y-49964065D01*
X248822762Y-49960956D01*
X248666000Y-49940318D01*
X248509238Y-49960956D01*
X248501731Y-49964065D01*
X248501729Y-49964066D01*
X248391632Y-50009670D01*
X248363159Y-50021464D01*
X248356712Y-50026411D01*
X248336190Y-50042158D01*
X248271021Y-50067352D01*
X248202576Y-50053314D01*
X248152587Y-50004500D01*
X248136923Y-49936408D01*
X248159379Y-49872303D01*
X248168096Y-49859946D01*
X248258969Y-49699980D01*
X248263880Y-49688950D01*
X248309132Y-49552917D01*
X248309625Y-49539048D01*
X248303534Y-49536000D01*
X246393172Y-49536000D01*
X246379855Y-49539910D01*
X246378722Y-49547788D01*
X210700500Y-49547788D01*
X210700500Y-46990000D01*
X238712750Y-46990000D01*
X238731670Y-47133709D01*
X238787139Y-47267625D01*
X238875379Y-47382621D01*
X238990375Y-47470861D01*
X239026407Y-47485786D01*
X239116777Y-47523218D01*
X239116779Y-47523219D01*
X239124291Y-47526330D01*
X239132353Y-47527391D01*
X239140200Y-47529494D01*
X239139847Y-47530813D01*
X239195905Y-47555615D01*
X239203501Y-47562604D01*
X240600396Y-48959499D01*
X240633881Y-49020822D01*
X240635567Y-49030492D01*
X240635608Y-49030646D01*
X240636670Y-49038709D01*
X240692139Y-49172625D01*
X240780379Y-49287621D01*
X240895375Y-49375861D01*
X240902887Y-49378972D01*
X240902886Y-49378972D01*
X241021777Y-49428218D01*
X241021779Y-49428219D01*
X241029291Y-49431330D01*
X241173000Y-49450250D01*
X241316709Y-49431330D01*
X241324221Y-49428219D01*
X241324223Y-49428218D01*
X241443114Y-49378972D01*
X241443113Y-49378972D01*
X241450625Y-49375861D01*
X241565621Y-49287621D01*
X241653861Y-49172625D01*
X241709330Y-49038709D01*
X241710097Y-49032881D01*
X246379242Y-49032881D01*
X246385700Y-49036000D01*
X248295319Y-49036000D01*
X248308636Y-49032090D01*
X248309711Y-49024614D01*
X248274773Y-48908892D01*
X248270172Y-48897731D01*
X248183799Y-48735285D01*
X248177119Y-48725232D01*
X248060833Y-48582651D01*
X248052337Y-48574095D01*
X247986389Y-48519538D01*
X247947282Y-48461638D01*
X247945686Y-48391786D01*
X247956769Y-48364254D01*
X247957997Y-48362020D01*
X247962361Y-48355947D01*
X248025601Y-48198634D01*
X248049490Y-48030778D01*
X248049645Y-48016000D01*
X248029276Y-47847680D01*
X247969345Y-47689077D01*
X247960657Y-47676436D01*
X247877549Y-47555513D01*
X247877546Y-47555510D01*
X247873312Y-47549349D01*
X247787951Y-47473294D01*
X247750992Y-47414001D01*
X247751956Y-47344138D01*
X247789908Y-47286422D01*
X247857741Y-47228487D01*
X247863423Y-47223634D01*
X247962361Y-47085947D01*
X248025601Y-46928634D01*
X248030283Y-46895737D01*
X248048918Y-46764800D01*
X248048918Y-46764794D01*
X248049490Y-46760778D01*
X248049645Y-46746000D01*
X248029276Y-46577680D01*
X247982016Y-46452609D01*
X247971989Y-46426073D01*
X247971987Y-46426070D01*
X247969345Y-46419077D01*
X247905947Y-46326833D01*
X247884198Y-46260435D01*
X247901800Y-46192819D01*
X247939247Y-46153498D01*
X247978397Y-46127338D01*
X247978399Y-46127336D01*
X247988552Y-46120552D01*
X248032867Y-46054231D01*
X248044500Y-45995748D01*
X248044500Y-44956252D01*
X248032867Y-44897769D01*
X247988552Y-44831448D01*
X247922231Y-44787133D01*
X247910255Y-44784751D01*
X247910253Y-44784750D01*
X247891674Y-44781055D01*
X247863748Y-44775500D01*
X246824252Y-44775500D01*
X246796326Y-44781055D01*
X246777747Y-44784750D01*
X246777745Y-44784751D01*
X246765769Y-44787133D01*
X246699448Y-44831448D01*
X246655133Y-44897769D01*
X246643500Y-44956252D01*
X246643500Y-45995748D01*
X246655133Y-46054231D01*
X246699448Y-46120552D01*
X246748952Y-46153630D01*
X246793756Y-46207241D01*
X246802463Y-46276566D01*
X246781511Y-46328032D01*
X246722113Y-46412547D01*
X246660524Y-46570513D01*
X246638394Y-46738611D01*
X246639214Y-46746039D01*
X246639214Y-46746041D01*
X246640841Y-46760778D01*
X246656999Y-46907135D01*
X246659565Y-46914147D01*
X246659566Y-46914151D01*
X246712697Y-47059336D01*
X246715266Y-47066356D01*
X246719433Y-47072558D01*
X246719435Y-47072561D01*
X246732510Y-47092018D01*
X246809830Y-47207083D01*
X246900619Y-47289695D01*
X246936955Y-47349371D01*
X246935259Y-47419220D01*
X246898679Y-47474850D01*
X246834527Y-47530813D01*
X246819604Y-47543831D01*
X246722113Y-47682547D01*
X246660524Y-47840513D01*
X246638394Y-48008611D01*
X246639214Y-48016039D01*
X246639214Y-48016041D01*
X246640841Y-48030778D01*
X246656999Y-48177135D01*
X246659565Y-48184147D01*
X246659566Y-48184151D01*
X246710157Y-48322396D01*
X246715266Y-48336356D01*
X246719435Y-48342561D01*
X246719436Y-48342562D01*
X246726803Y-48353525D01*
X246747856Y-48420147D01*
X246729548Y-48487575D01*
X246701580Y-48519325D01*
X246645675Y-48564273D01*
X246637054Y-48572715D01*
X246518791Y-48713655D01*
X246511971Y-48723616D01*
X246423342Y-48884832D01*
X246418582Y-48895936D01*
X246379541Y-49019007D01*
X246379242Y-49032881D01*
X241710097Y-49032881D01*
X241728250Y-48895000D01*
X241709330Y-48751291D01*
X241702701Y-48735285D01*
X241656972Y-48624886D01*
X241653861Y-48617375D01*
X241565621Y-48502379D01*
X241450625Y-48414139D01*
X241396659Y-48391786D01*
X241324223Y-48361782D01*
X241324221Y-48361781D01*
X241316709Y-48358670D01*
X241308647Y-48357609D01*
X241300800Y-48355506D01*
X241301153Y-48354187D01*
X241245095Y-48329385D01*
X241237499Y-48322396D01*
X239840604Y-46925501D01*
X239807119Y-46864178D01*
X239805433Y-46854508D01*
X239805391Y-46854353D01*
X239804330Y-46846291D01*
X239748861Y-46712375D01*
X239660621Y-46597379D01*
X239545625Y-46509139D01*
X239509593Y-46494214D01*
X239419223Y-46456782D01*
X239419221Y-46456781D01*
X239411709Y-46453670D01*
X239268000Y-46434750D01*
X239124291Y-46453670D01*
X239116779Y-46456781D01*
X239116777Y-46456782D01*
X239026407Y-46494214D01*
X238990375Y-46509139D01*
X238875379Y-46597379D01*
X238787139Y-46712375D01*
X238731670Y-46846291D01*
X238712750Y-46990000D01*
X210700500Y-46990000D01*
X210700500Y-42271748D01*
X235423500Y-42271748D01*
X235435133Y-42330231D01*
X235479448Y-42396552D01*
X235545769Y-42440867D01*
X235557745Y-42443249D01*
X235557747Y-42443250D01*
X235576326Y-42446945D01*
X235604252Y-42452500D01*
X237343748Y-42452500D01*
X237371674Y-42446945D01*
X237390253Y-42443250D01*
X237390255Y-42443249D01*
X237402231Y-42440867D01*
X237468552Y-42396552D01*
X237512867Y-42330231D01*
X237524500Y-42271748D01*
X237524500Y-41387262D01*
X237958520Y-41387262D01*
X237975759Y-41592553D01*
X238032544Y-41790586D01*
X238035316Y-41795981D01*
X238035317Y-41795982D01*
X238050535Y-41825593D01*
X238126712Y-41973818D01*
X238130480Y-41978572D01*
X238159402Y-42015062D01*
X238254677Y-42135270D01*
X238259296Y-42139201D01*
X238406950Y-42264865D01*
X238406955Y-42264869D01*
X238411564Y-42268791D01*
X238591398Y-42369297D01*
X238787329Y-42432959D01*
X238793347Y-42433677D01*
X238793349Y-42433677D01*
X238935410Y-42450616D01*
X238991894Y-42457351D01*
X238997938Y-42456886D01*
X238997939Y-42456886D01*
X239070404Y-42451310D01*
X239197300Y-42441546D01*
X239282596Y-42417731D01*
X239389885Y-42387776D01*
X239389889Y-42387774D01*
X239395725Y-42386145D01*
X239579610Y-42293258D01*
X239741951Y-42166424D01*
X239745907Y-42161840D01*
X239745911Y-42161837D01*
X239872602Y-42015062D01*
X239876564Y-42010472D01*
X239897387Y-41973818D01*
X239975327Y-41836618D01*
X239978323Y-41831344D01*
X240010197Y-41735527D01*
X240050036Y-41678128D01*
X240114583Y-41651380D01*
X240183345Y-41663774D01*
X240234489Y-41711376D01*
X240247633Y-41742573D01*
X240279168Y-41860264D01*
X240282857Y-41870397D01*
X240378110Y-42074667D01*
X240383508Y-42084017D01*
X240512784Y-42268643D01*
X240519719Y-42276907D01*
X240679091Y-42436279D01*
X240687357Y-42443215D01*
X240871992Y-42572498D01*
X240881324Y-42577886D01*
X241085603Y-42673143D01*
X241095736Y-42676832D01*
X241286779Y-42728022D01*
X241300653Y-42727691D01*
X241304000Y-42719875D01*
X241304000Y-42714806D01*
X241804000Y-42714806D01*
X241807910Y-42728123D01*
X241816326Y-42729333D01*
X242012264Y-42676832D01*
X242022397Y-42673143D01*
X242226676Y-42577886D01*
X242236008Y-42572498D01*
X242420643Y-42443215D01*
X242428909Y-42436279D01*
X242588281Y-42276907D01*
X242595216Y-42268643D01*
X242724492Y-42084017D01*
X242729890Y-42074667D01*
X242825143Y-41870397D01*
X242828832Y-41860264D01*
X242859807Y-41744663D01*
X242896172Y-41685003D01*
X242959019Y-41654474D01*
X243028395Y-41662769D01*
X243082273Y-41707254D01*
X243098778Y-41742578D01*
X243112544Y-41790586D01*
X243115316Y-41795981D01*
X243115317Y-41795982D01*
X243130535Y-41825593D01*
X243206712Y-41973818D01*
X243210480Y-41978572D01*
X243239402Y-42015062D01*
X243334677Y-42135270D01*
X243339296Y-42139201D01*
X243486950Y-42264865D01*
X243486955Y-42264869D01*
X243491564Y-42268791D01*
X243671398Y-42369297D01*
X243867329Y-42432959D01*
X243873347Y-42433677D01*
X243873349Y-42433677D01*
X244015410Y-42450616D01*
X244071894Y-42457351D01*
X244077938Y-42456886D01*
X244077939Y-42456886D01*
X244150404Y-42451310D01*
X244277300Y-42441546D01*
X244362596Y-42417731D01*
X244469885Y-42387776D01*
X244469889Y-42387774D01*
X244475725Y-42386145D01*
X244659610Y-42293258D01*
X244821951Y-42166424D01*
X244825907Y-42161840D01*
X244825911Y-42161837D01*
X244952602Y-42015062D01*
X244956564Y-42010472D01*
X244977387Y-41973818D01*
X245055327Y-41836618D01*
X245058323Y-41831344D01*
X245123351Y-41635863D01*
X245128823Y-41592553D01*
X245148736Y-41434919D01*
X245148736Y-41434915D01*
X245149171Y-41431474D01*
X245149583Y-41402000D01*
X245148138Y-41387262D01*
X245578520Y-41387262D01*
X245595759Y-41592553D01*
X245652544Y-41790586D01*
X245655316Y-41795981D01*
X245655317Y-41795982D01*
X245670535Y-41825593D01*
X245746712Y-41973818D01*
X245750480Y-41978572D01*
X245779402Y-42015062D01*
X245874677Y-42135270D01*
X245879296Y-42139201D01*
X246026950Y-42264865D01*
X246026955Y-42264869D01*
X246031564Y-42268791D01*
X246211398Y-42369297D01*
X246407329Y-42432959D01*
X246413347Y-42433677D01*
X246413349Y-42433677D01*
X246555410Y-42450616D01*
X246611894Y-42457351D01*
X246617938Y-42456886D01*
X246617939Y-42456886D01*
X246690404Y-42451310D01*
X246817300Y-42441546D01*
X246902596Y-42417731D01*
X247009885Y-42387776D01*
X247009889Y-42387774D01*
X247015725Y-42386145D01*
X247199610Y-42293258D01*
X247361951Y-42166424D01*
X247365907Y-42161840D01*
X247365911Y-42161837D01*
X247492602Y-42015062D01*
X247496564Y-42010472D01*
X247517387Y-41973818D01*
X247595327Y-41836618D01*
X247598323Y-41831344D01*
X247663351Y-41635863D01*
X247668823Y-41592553D01*
X247688736Y-41434919D01*
X247688736Y-41434915D01*
X247689171Y-41431474D01*
X247689583Y-41402000D01*
X247669480Y-41196970D01*
X247609935Y-40999749D01*
X247513218Y-40817849D01*
X247383011Y-40658200D01*
X247224275Y-40526882D01*
X247043055Y-40428897D01*
X247033991Y-40426091D01*
X246852046Y-40369770D01*
X246852047Y-40369770D01*
X246846254Y-40367977D01*
X246641369Y-40346443D01*
X246635336Y-40346992D01*
X246635332Y-40346992D01*
X246509721Y-40358424D01*
X246436203Y-40365114D01*
X246430390Y-40366825D01*
X246430389Y-40366825D01*
X246244392Y-40421567D01*
X246238572Y-40423280D01*
X246161419Y-40463615D01*
X246061374Y-40515917D01*
X246061370Y-40515920D01*
X246056002Y-40518726D01*
X246051279Y-40522523D01*
X246051278Y-40522524D01*
X246045596Y-40527093D01*
X245895447Y-40647815D01*
X245763024Y-40805630D01*
X245663776Y-40986162D01*
X245661942Y-40991944D01*
X245661941Y-40991946D01*
X245603317Y-41176753D01*
X245601484Y-41182532D01*
X245578520Y-41387262D01*
X245148138Y-41387262D01*
X245129480Y-41196970D01*
X245069935Y-40999749D01*
X244973218Y-40817849D01*
X244843011Y-40658200D01*
X244684275Y-40526882D01*
X244503055Y-40428897D01*
X244493991Y-40426091D01*
X244312046Y-40369770D01*
X244312047Y-40369770D01*
X244306254Y-40367977D01*
X244101369Y-40346443D01*
X244095336Y-40346992D01*
X244095332Y-40346992D01*
X243969721Y-40358424D01*
X243896203Y-40365114D01*
X243890390Y-40366825D01*
X243890389Y-40366825D01*
X243704392Y-40421567D01*
X243698572Y-40423280D01*
X243621419Y-40463615D01*
X243521374Y-40515917D01*
X243521370Y-40515920D01*
X243516002Y-40518726D01*
X243511279Y-40522523D01*
X243511278Y-40522524D01*
X243505596Y-40527093D01*
X243355447Y-40647815D01*
X243223024Y-40805630D01*
X243123776Y-40986162D01*
X243121942Y-40991944D01*
X243121941Y-40991946D01*
X243098269Y-41066570D01*
X243059235Y-41124519D01*
X242995068Y-41152166D01*
X242926140Y-41140733D01*
X242874335Y-41093849D01*
X242860298Y-41061170D01*
X242828832Y-40943736D01*
X242825143Y-40933603D01*
X242729890Y-40729333D01*
X242724492Y-40719983D01*
X242595216Y-40535357D01*
X242588281Y-40527093D01*
X242428909Y-40367721D01*
X242420643Y-40360785D01*
X242236008Y-40231502D01*
X242226676Y-40226114D01*
X242022397Y-40130857D01*
X242012264Y-40127168D01*
X241821221Y-40075978D01*
X241807347Y-40076309D01*
X241804000Y-40084125D01*
X241804000Y-42714806D01*
X241304000Y-42714806D01*
X241304000Y-40089194D01*
X241300090Y-40075877D01*
X241291674Y-40074667D01*
X241095736Y-40127168D01*
X241085603Y-40130857D01*
X240881333Y-40226110D01*
X240871983Y-40231508D01*
X240687357Y-40360784D01*
X240679093Y-40367719D01*
X240519719Y-40527093D01*
X240512784Y-40535357D01*
X240383508Y-40719983D01*
X240378110Y-40729333D01*
X240282857Y-40933603D01*
X240279167Y-40943739D01*
X240247886Y-41060483D01*
X240211521Y-41120144D01*
X240148674Y-41150673D01*
X240079298Y-41142378D01*
X240025421Y-41097893D01*
X240009403Y-41064230D01*
X239991688Y-41005555D01*
X239989935Y-40999749D01*
X239893218Y-40817849D01*
X239763011Y-40658200D01*
X239604275Y-40526882D01*
X239423055Y-40428897D01*
X239413991Y-40426091D01*
X239232046Y-40369770D01*
X239232047Y-40369770D01*
X239226254Y-40367977D01*
X239021369Y-40346443D01*
X239015336Y-40346992D01*
X239015332Y-40346992D01*
X238889721Y-40358424D01*
X238816203Y-40365114D01*
X238810390Y-40366825D01*
X238810389Y-40366825D01*
X238624392Y-40421567D01*
X238618572Y-40423280D01*
X238541419Y-40463615D01*
X238441374Y-40515917D01*
X238441370Y-40515920D01*
X238436002Y-40518726D01*
X238431279Y-40522523D01*
X238431278Y-40522524D01*
X238425596Y-40527093D01*
X238275447Y-40647815D01*
X238143024Y-40805630D01*
X238043776Y-40986162D01*
X238041942Y-40991944D01*
X238041941Y-40991946D01*
X237983317Y-41176753D01*
X237981484Y-41182532D01*
X237958520Y-41387262D01*
X237524500Y-41387262D01*
X237524500Y-40532252D01*
X237512867Y-40473769D01*
X237468552Y-40407448D01*
X237402231Y-40363133D01*
X237390255Y-40360751D01*
X237390253Y-40360750D01*
X237371674Y-40357055D01*
X237343748Y-40351500D01*
X235604252Y-40351500D01*
X235576326Y-40357055D01*
X235557747Y-40360750D01*
X235557745Y-40360751D01*
X235545769Y-40363133D01*
X235479448Y-40407448D01*
X235435133Y-40473769D01*
X235423500Y-40532252D01*
X235423500Y-42271748D01*
X210700500Y-42271748D01*
X210700500Y-36983972D01*
X224829280Y-36983972D01*
X224829643Y-36990669D01*
X224835083Y-37040744D01*
X224838651Y-37055753D01*
X224883097Y-37174311D01*
X224891492Y-37189646D01*
X224966796Y-37290124D01*
X224979156Y-37302484D01*
X225079634Y-37377788D01*
X225094969Y-37386183D01*
X225213527Y-37430629D01*
X225228536Y-37434197D01*
X225278611Y-37439637D01*
X225285308Y-37440000D01*
X225811450Y-37440000D01*
X225826449Y-37435596D01*
X225827636Y-37434226D01*
X225829280Y-37426668D01*
X225829280Y-37422170D01*
X226329280Y-37422170D01*
X226333684Y-37437169D01*
X226335054Y-37438356D01*
X226342612Y-37440000D01*
X226873252Y-37440000D01*
X226879949Y-37439637D01*
X226930024Y-37434197D01*
X226945033Y-37430629D01*
X227063591Y-37386183D01*
X227078926Y-37377788D01*
X227179404Y-37302484D01*
X227191764Y-37290124D01*
X227267068Y-37189646D01*
X227275463Y-37174311D01*
X227319909Y-37055753D01*
X227323477Y-37040744D01*
X227328917Y-36990669D01*
X227329280Y-36983972D01*
X233329280Y-36983972D01*
X233329643Y-36990669D01*
X233335083Y-37040744D01*
X233338651Y-37055753D01*
X233383097Y-37174311D01*
X233391492Y-37189646D01*
X233466796Y-37290124D01*
X233479156Y-37302484D01*
X233579634Y-37377788D01*
X233594969Y-37386183D01*
X233713527Y-37430629D01*
X233728536Y-37434197D01*
X233778611Y-37439637D01*
X233785308Y-37440000D01*
X234311450Y-37440000D01*
X234326449Y-37435596D01*
X234327636Y-37434226D01*
X234329280Y-37426668D01*
X234329280Y-37422170D01*
X234829280Y-37422170D01*
X234833684Y-37437169D01*
X234835054Y-37438356D01*
X234842612Y-37440000D01*
X235373252Y-37440000D01*
X235379949Y-37439637D01*
X235430024Y-37434197D01*
X235445033Y-37430629D01*
X235563591Y-37386183D01*
X235578926Y-37377788D01*
X235679404Y-37302484D01*
X235691764Y-37290124D01*
X235767068Y-37189646D01*
X235775463Y-37174311D01*
X235819909Y-37055753D01*
X235823477Y-37040744D01*
X235828917Y-36990669D01*
X235829280Y-36983972D01*
X235829280Y-34667830D01*
X235824876Y-34652831D01*
X235823506Y-34651644D01*
X235815948Y-34650000D01*
X234847110Y-34650000D01*
X234832111Y-34654404D01*
X234830924Y-34655774D01*
X234829280Y-34663332D01*
X234829280Y-37422170D01*
X234329280Y-37422170D01*
X234329280Y-34667830D01*
X234324876Y-34652831D01*
X234323506Y-34651644D01*
X234315948Y-34650000D01*
X233347110Y-34650000D01*
X233332111Y-34654404D01*
X233330924Y-34655774D01*
X233329280Y-34663332D01*
X233329280Y-36983972D01*
X227329280Y-36983972D01*
X227329280Y-34667830D01*
X227324876Y-34652831D01*
X227323506Y-34651644D01*
X227315948Y-34650000D01*
X226347110Y-34650000D01*
X226332111Y-34654404D01*
X226330924Y-34655774D01*
X226329280Y-34663332D01*
X226329280Y-37422170D01*
X225829280Y-37422170D01*
X225829280Y-34667830D01*
X225824876Y-34652831D01*
X225823506Y-34651644D01*
X225815948Y-34650000D01*
X224847110Y-34650000D01*
X224832111Y-34654404D01*
X224830924Y-34655774D01*
X224829280Y-34663332D01*
X224829280Y-36983972D01*
X210700500Y-36983972D01*
X210700500Y-31484500D01*
X210720185Y-31417461D01*
X210772989Y-31371706D01*
X210824500Y-31360500D01*
X224830854Y-31360500D01*
X224897893Y-31380185D01*
G37*
%TD.AperFunction*%
%TD*%
M02*
