%TF.GenerationSoftware,KiCad,Pcbnew,6.0.11-2627ca5db0~126~ubuntu22.04.1*%
%TF.CreationDate,2023-02-27T20:23:57+01:00*%
%TF.ProjectId,STM32 PIR Sensor,53544d33-3220-4504-9952-2053656e736f,rev?*%
%TF.SameCoordinates,Original*%
%TF.FileFunction,Paste,Top*%
%TF.FilePolarity,Positive*%
%FSLAX46Y46*%
G04 Gerber Fmt 4.6, Leading zero omitted, Abs format (unit mm)*
G04 Created by KiCad (PCBNEW 6.0.11-2627ca5db0~126~ubuntu22.04.1) date 2023-02-27 20:23:57*
%MOMM*%
%LPD*%
G01*
G04 APERTURE LIST*
G04 Aperture macros list*
%AMRoundRect*
0 Rectangle with rounded corners*
0 $1 Rounding radius*
0 $2 $3 $4 $5 $6 $7 $8 $9 X,Y pos of 4 corners*
0 Add a 4 corners polygon primitive as box body*
4,1,4,$2,$3,$4,$5,$6,$7,$8,$9,$2,$3,0*
0 Add four circle primitives for the rounded corners*
1,1,$1+$1,$2,$3*
1,1,$1+$1,$4,$5*
1,1,$1+$1,$6,$7*
1,1,$1+$1,$8,$9*
0 Add four rect primitives between the rounded corners*
20,1,$1+$1,$2,$3,$4,$5,0*
20,1,$1+$1,$4,$5,$6,$7,0*
20,1,$1+$1,$6,$7,$8,$9,0*
20,1,$1+$1,$8,$9,$2,$3,0*%
G04 Aperture macros list end*
%ADD10RoundRect,0.237500X0.250000X0.237500X-0.250000X0.237500X-0.250000X-0.237500X0.250000X-0.237500X0*%
%ADD11RoundRect,0.237500X-0.300000X-0.237500X0.300000X-0.237500X0.300000X0.237500X-0.300000X0.237500X0*%
%ADD12RoundRect,0.250000X0.337500X0.475000X-0.337500X0.475000X-0.337500X-0.475000X0.337500X-0.475000X0*%
%ADD13RoundRect,0.150000X-0.800000X-0.150000X0.800000X-0.150000X0.800000X0.150000X-0.800000X0.150000X0*%
%ADD14RoundRect,0.237500X0.237500X-0.300000X0.237500X0.300000X-0.237500X0.300000X-0.237500X-0.300000X0*%
%ADD15RoundRect,0.237500X-0.250000X-0.237500X0.250000X-0.237500X0.250000X0.237500X-0.250000X0.237500X0*%
%ADD16RoundRect,0.237500X0.237500X-0.250000X0.237500X0.250000X-0.237500X0.250000X-0.237500X-0.250000X0*%
%ADD17RoundRect,0.237500X-0.237500X0.250000X-0.237500X-0.250000X0.237500X-0.250000X0.237500X0.250000X0*%
%ADD18R,1.500000X5.080000*%
%ADD19RoundRect,0.150000X0.512500X0.150000X-0.512500X0.150000X-0.512500X-0.150000X0.512500X-0.150000X0*%
%ADD20RoundRect,0.125000X0.625000X0.125000X-0.625000X0.125000X-0.625000X-0.125000X0.625000X-0.125000X0*%
%ADD21RoundRect,0.125000X0.125000X0.625000X-0.125000X0.625000X-0.125000X-0.625000X0.125000X-0.625000X0*%
%ADD22RoundRect,0.250000X-0.475000X0.337500X-0.475000X-0.337500X0.475000X-0.337500X0.475000X0.337500X0*%
%ADD23RoundRect,0.250000X-0.275000X-0.350000X0.275000X-0.350000X0.275000X0.350000X-0.275000X0.350000X0*%
%ADD24RoundRect,0.237500X0.300000X0.237500X-0.300000X0.237500X-0.300000X-0.237500X0.300000X-0.237500X0*%
%ADD25R,1.198880X2.999740*%
%ADD26RoundRect,0.150000X0.150000X-0.800000X0.150000X0.800000X-0.150000X0.800000X-0.150000X-0.800000X0*%
%ADD27R,1.700000X1.300000*%
%ADD28RoundRect,0.250000X-0.350000X0.275000X-0.350000X-0.275000X0.350000X-0.275000X0.350000X0.275000X0*%
%ADD29RoundRect,0.237500X-0.237500X0.300000X-0.237500X-0.300000X0.237500X-0.300000X0.237500X0.300000X0*%
%ADD30R,1.200000X0.900000*%
G04 APERTURE END LIST*
D10*
%TO.C,R13*%
X241196500Y-99060000D03*
X239371500Y-99060000D03*
%TD*%
D11*
%TO.C,C21*%
X239421500Y-96520000D03*
X241146500Y-96520000D03*
%TD*%
D12*
%TO.C,C15*%
X217953500Y-82744500D03*
X215878500Y-82744500D03*
%TD*%
D13*
%TO.C,U6*%
X228910000Y-84963000D03*
X228910000Y-86233000D03*
X228910000Y-87503000D03*
X228910000Y-88773000D03*
X235910000Y-88773000D03*
X235910000Y-87503000D03*
X235910000Y-86233000D03*
X235910000Y-84963000D03*
%TD*%
D14*
%TO.C,C2*%
X242062000Y-77062500D03*
X242062000Y-75337500D03*
%TD*%
D15*
%TO.C,R14*%
X239371500Y-94742000D03*
X241196500Y-94742000D03*
%TD*%
D16*
%TO.C,R10*%
X238760000Y-87272500D03*
X238760000Y-85447500D03*
%TD*%
D17*
%TO.C,R5*%
X225552000Y-73917000D03*
X225552000Y-75742000D03*
%TD*%
D16*
%TO.C,R11*%
X226822000Y-100226500D03*
X226822000Y-98401500D03*
%TD*%
%TO.C,R8*%
X223520000Y-83657000D03*
X223520000Y-81832000D03*
%TD*%
D12*
%TO.C,C17*%
X231669500Y-91694000D03*
X229594500Y-91694000D03*
%TD*%
D18*
%TO.C,J2*%
X230329280Y-34400000D03*
X226079280Y-34400000D03*
X234579280Y-34400000D03*
%TD*%
D19*
%TO.C,U1*%
X246126000Y-79182000D03*
X246126000Y-78232000D03*
X246126000Y-77282000D03*
X243851000Y-77282000D03*
X243851000Y-78232000D03*
X243851000Y-79182000D03*
%TD*%
D14*
%TO.C,C16*%
X221742000Y-83607000D03*
X221742000Y-81882000D03*
%TD*%
D20*
%TO.C,U4*%
X232775000Y-67570000D03*
X232775000Y-66770000D03*
X232775000Y-65970000D03*
X232775000Y-65170000D03*
X232775000Y-64370000D03*
X232775000Y-63570000D03*
X232775000Y-62770000D03*
X232775000Y-61970000D03*
D21*
X231400000Y-60595000D03*
X230600000Y-60595000D03*
X229800000Y-60595000D03*
X229000000Y-60595000D03*
X228200000Y-60595000D03*
X227400000Y-60595000D03*
X226600000Y-60595000D03*
X225800000Y-60595000D03*
D20*
X224425000Y-61970000D03*
X224425000Y-62770000D03*
X224425000Y-63570000D03*
X224425000Y-64370000D03*
X224425000Y-65170000D03*
X224425000Y-65970000D03*
X224425000Y-66770000D03*
X224425000Y-67570000D03*
D21*
X225800000Y-68945000D03*
X226600000Y-68945000D03*
X227400000Y-68945000D03*
X228200000Y-68945000D03*
X229000000Y-68945000D03*
X229800000Y-68945000D03*
X230600000Y-68945000D03*
X231400000Y-68945000D03*
%TD*%
D22*
%TO.C,C3*%
X250488500Y-74156500D03*
X250488500Y-76231500D03*
%TD*%
D16*
%TO.C,R6*%
X229641000Y-75742000D03*
X229641000Y-73917000D03*
%TD*%
D10*
%TO.C,R2*%
X241958500Y-79502000D03*
X240133500Y-79502000D03*
%TD*%
D22*
%TO.C,C5*%
X248188500Y-74156500D03*
X248188500Y-76231500D03*
%TD*%
D16*
%TO.C,R7*%
X219964000Y-83657000D03*
X219964000Y-81832000D03*
%TD*%
D15*
%TO.C,R3*%
X243943500Y-81000000D03*
X245768500Y-81000000D03*
%TD*%
D11*
%TO.C,C10*%
X235357500Y-64415500D03*
X237082500Y-64415500D03*
%TD*%
D15*
%TO.C,R17*%
X212447500Y-74168000D03*
X214272500Y-74168000D03*
%TD*%
D23*
%TO.C,L1*%
X243706000Y-74168000D03*
X246006000Y-74168000D03*
%TD*%
D16*
%TO.C,R15*%
X240284000Y-77112500D03*
X240284000Y-75287500D03*
%TD*%
D11*
%TO.C,C8*%
X222514500Y-59760000D03*
X224239500Y-59760000D03*
%TD*%
D24*
%TO.C,C7*%
X237082500Y-66193500D03*
X235357500Y-66193500D03*
%TD*%
D15*
%TO.C,R12*%
X233783500Y-100838000D03*
X235608500Y-100838000D03*
%TD*%
D14*
%TO.C,C1*%
X248188500Y-80194000D03*
X248188500Y-78469000D03*
%TD*%
D24*
%TO.C,C9*%
X235050500Y-69241500D03*
X233325500Y-69241500D03*
%TD*%
D25*
%TO.C,U2*%
X216349580Y-54742080D03*
X218348560Y-54742080D03*
X220347540Y-54742080D03*
X222349060Y-54742080D03*
X224345500Y-54742080D03*
X226347020Y-54742080D03*
X228346000Y-54742080D03*
X230344980Y-54742080D03*
X230344980Y-39745920D03*
X228346000Y-39745920D03*
X226347020Y-39745920D03*
X224345500Y-39745920D03*
X222349060Y-39745920D03*
X220347540Y-39745920D03*
X218348560Y-39745920D03*
X216349580Y-39745920D03*
%TD*%
D26*
%TO.C,U3*%
X245745000Y-67000000D03*
X247015000Y-67000000D03*
X248285000Y-67000000D03*
X249555000Y-67000000D03*
X249555000Y-60000000D03*
X248285000Y-60000000D03*
X247015000Y-60000000D03*
X245745000Y-60000000D03*
%TD*%
D24*
%TO.C,C22*%
X240638500Y-91948000D03*
X238913500Y-91948000D03*
%TD*%
D27*
%TO.C,D2*%
X225806000Y-85824000D03*
X225806000Y-82324000D03*
%TD*%
D10*
%TO.C,R18*%
X216154000Y-72390000D03*
X214329000Y-72390000D03*
%TD*%
D24*
%TO.C,C6*%
X222207500Y-61538000D03*
X220482500Y-61538000D03*
%TD*%
D13*
%TO.C,U7*%
X229418000Y-94615000D03*
X229418000Y-95885000D03*
X229418000Y-97155000D03*
X229418000Y-98425000D03*
X236418000Y-98425000D03*
X236418000Y-97155000D03*
X236418000Y-95885000D03*
X236418000Y-94615000D03*
%TD*%
D10*
%TO.C,R1*%
X248816500Y-69850000D03*
X246991500Y-69850000D03*
%TD*%
D15*
%TO.C,R4*%
X243181500Y-69850000D03*
X245006500Y-69850000D03*
%TD*%
D24*
%TO.C,C4*%
X248766500Y-57150000D03*
X247041500Y-57150000D03*
%TD*%
D28*
%TO.C,FB1*%
X241046000Y-62604000D03*
X241046000Y-64904000D03*
%TD*%
D11*
%TO.C,C18*%
X238913500Y-89154000D03*
X240638500Y-89154000D03*
%TD*%
D29*
%TO.C,C20*%
X235966000Y-80671500D03*
X235966000Y-82396500D03*
%TD*%
D24*
%TO.C,C12*%
X240892500Y-67056000D03*
X239167500Y-67056000D03*
%TD*%
D14*
%TO.C,C19*%
X240792000Y-87222500D03*
X240792000Y-85497500D03*
%TD*%
%TO.C,C13*%
X227863000Y-75692000D03*
X227863000Y-73967000D03*
%TD*%
D29*
%TO.C,C11*%
X239014000Y-62637500D03*
X239014000Y-64362500D03*
%TD*%
D15*
%TO.C,R9*%
X233783500Y-91694000D03*
X235608500Y-91694000D03*
%TD*%
D30*
%TO.C,D1*%
X245618000Y-88520000D03*
X245618000Y-91820000D03*
%TD*%
M02*
