M48
; DRILL file {KiCad 6.0.11-2627ca5db0~126~ubuntu22.04.1} date Mon 27 Feb 2023 20:24:14 CET
; FORMAT={-:-/ absolute / inch / decimal}
; #@! TF.CreationDate,2023-02-27T20:24:14+01:00
; #@! TF.GenerationSoftware,Kicad,Pcbnew,6.0.11-2627ca5db0~126~ubuntu22.04.1
; #@! TF.FileFunction,Plated,1,2,PTH
FMAT,2
INCH
; #@! TA.AperFunction,Plated,PTH,ViaDrill
T1C0.0118
; #@! TA.AperFunction,Plated,PTH,ViaDrill
T2C0.0157
; #@! TA.AperFunction,Plated,PTH,ComponentDrill
T3C0.0256
; #@! TA.AperFunction,Plated,PTH,ComponentDrill
T4C0.0276
; #@! TA.AperFunction,Plated,PTH,ComponentDrill
T5C0.0394
; #@! TA.AperFunction,Plated,PTH,ComponentDrill
T6C0.0512
%
G90
G05
T1
X8.32Y-1.26
X8.32Y-1.32
X8.32Y-1.39
X8.32Y-1.46
X8.37Y-3.54
X8.37Y-3.75
X8.37Y-3.92
X8.38Y-1.62
X8.38Y-1.89
X8.38Y-2.23
X8.39Y-2.54
X8.41Y-1.46
X8.42Y-1.26
X8.43Y-3.03
X8.49Y-1.46
X8.5Y-1.26
X8.5Y-3.32
X8.52Y-2.25
X8.545Y-2.595
X8.55Y-1.76
X8.58Y-1.46
X8.58Y-3.52
X8.58Y-3.76
X8.58Y-3.92
X8.59Y-1.26
X8.63Y-2.42
X8.66Y-1.46
X8.67Y-1.26
X8.7Y-2.0
X8.7Y-2.35
X8.73Y-3.36
X8.74Y-1.46
X8.75Y-1.26
X8.77Y-3.51
X8.77Y-3.77
X8.77Y-3.92
X8.82Y-1.26
X8.82Y-1.46
X8.84Y-1.89
X8.85Y-3.03
X8.89Y-3.44
X8.91Y-2.44
X8.9197Y-2.9099
X8.99Y-1.65
X9.01Y-1.27
X9.01Y-1.35
X9.01Y-1.42
X9.02Y-1.48
X9.04Y-1.89
X9.04Y-2.06
X9.08Y-2.66
X9.08Y-3.49
X9.09Y-2.91
X9.1Y-2.06
X9.1Y-3.87
X9.12Y-1.48
X9.12Y-3.97
X9.13Y-1.27
X9.13Y-1.35
X9.13Y-1.42
X9.16Y-3.37
X9.19Y-1.49
X9.19Y-1.61
X9.22Y-3.71
X9.25Y-3.02
X9.25Y-3.17
X9.26Y-1.49
X9.28Y-1.89
X9.2878Y-3.3022
X9.33Y-1.26
X9.33Y-1.49
X9.34Y-3.57
X9.36Y-3.31
X9.38Y-3.02
X9.4Y-1.26
X9.4Y-1.49
X9.41Y-2.59
X9.41Y-3.57
X9.42Y-1.85
X9.48Y-3.56
X9.49Y-1.49
X9.495Y-1.925
X9.5Y-1.26
X9.5Y-2.9
X9.5Y-3.68
X9.51Y-1.7
X9.51Y-2.75
X9.51Y-3.3
X9.52Y-3.62
X9.53Y-2.6
X9.54Y-3.9
X9.57Y-1.49
X9.58Y-1.26
X9.61Y-2.6
X9.66Y-1.49
X9.67Y-1.26
X9.67Y-3.42
X9.67Y-3.9
X9.675Y-2.105
X9.68Y-3.24
X9.69Y-1.94
X9.7Y-3.0
X9.74Y-1.49
X9.75Y-1.26
X9.75Y-2.18
X9.75Y-2.43
X9.79Y-2.8
X9.8Y-2.43
X9.8Y-3.36
X9.8Y-3.56
X9.81Y-3.78
X9.82Y-1.49
X9.82Y-2.57
X9.82Y-3.09
X9.83Y-1.26
X9.86Y-3.05
X9.87Y-3.9
X9.88Y-2.86
X9.9Y-1.26
X9.9Y-1.49
X9.92Y-3.47
X9.93Y-1.6
X9.93Y-1.99
X9.93Y-3.78
X9.97Y-1.26
X9.97Y-1.33
X9.97Y-1.41
X9.97Y-1.49
T2
X9.79Y-1.99
T3
X9.738Y-1.7904
X9.738Y-1.8404
X9.738Y-1.8904
X9.738Y-1.9404
X9.738Y-1.9904
T4
X9.0535Y-3.0787
X9.1535Y-2.9787
X9.2535Y-3.0787
T5
X9.31Y-1.63
X9.41Y-1.63
X9.51Y-1.63
X9.61Y-1.63
X9.71Y-1.63
T6
X9.6716Y-3.7075
X9.8684Y-3.7075
T0
M30
